<?xml version="1.0" standalone="no"?>
<!DOCTYPE svg PUBLIC "-//W3C//DTD SVG 1.1//EN" "http://www.w3.org/Graphics/SVG/1.1/DTD/svg11.dtd" >
<!--
2013-9-30: Created.
-->
<svg>
<metadata>
Created by iconfont
</metadata>
<defs>

<font id="iconfont" horiz-adv-x="1024" >
  <font-face
    font-family="iconfont"
    font-weight="500"
    font-stretch="normal"
    units-per-em="1024"
    ascent="896"
    descent="-128"
  />
    <missing-glyph />
    
    <glyph glyph-name="x" unicode="x" horiz-adv-x="1001"
d="M281 543q-27 -1 -53 -1h-83q-18 0 -36.5 -6t-32.5 -18.5t-23 -32t-9 -45.5v-76h912v41q0 16 -0.5 30t-0.5 18q0 13 -5 29t-17 29.5t-31.5 22.5t-49.5 9h-133v-97h-438v97zM955 310v-52q0 -23 0.5 -52t0.5 -58t-10.5 -47.5t-26 -30t-33 -16t-31.5 -4.5q-14 -1 -29.5 -0.5
t-29.5 0.5h-32l-45 128h-439l-44 -128h-29h-34q-20 0 -45 1q-25 0 -41 9.5t-25.5 23t-13.5 29.5t-4 30v167h911zM163 247q-12 0 -21 -8.5t-9 -21.5t9 -21.5t21 -8.5q13 0 22 8.5t9 21.5t-9 21.5t-22 8.5zM316 123q-8 -26 -14 -48q-5 -19 -10.5 -37t-7.5 -25t-3 -15t1 -14.5
t9.5 -10.5t21.5 -4h37h67h81h80h64h36q23 0 34 12t2 38q-5 13 -9.5 30.5t-9.5 34.5q-5 19 -11 39h-368zM336 498v228q0 11 2.5 23t10 21.5t20.5 15.5t34 6h188q31 0 51.5 -14.5t20.5 -52.5v-227h-327z" />
    

    
    <glyph glyph-name="gouwucheman" unicode="&#58904;" d="M346.112 89.088q19.456 0 36.864-7.168t30.208-19.968 20.48-30.208 7.68-36.864-7.68-36.864-20.48-30.208-30.208-20.48-36.864-7.68q-20.48 0-37.888 7.68t-30.208 20.48-20.48 30.208-7.68 36.864 7.68 36.864 20.48 30.208 30.208 19.968 37.888 7.168zM772.096 87.04q19.456 0 37.376-7.168t30.72-19.968 20.48-30.208 7.68-36.864-7.68-36.864-20.48-30.208-30.72-20.48-37.376-7.68-36.864 7.68-30.208 20.48-20.48 30.208-7.68 36.864 7.68 36.864 20.48 30.208 30.208 19.968 36.864 7.168zM944.128 668.672q28.672 0 44.544-7.68t22.528-18.944 6.144-24.064-3.584-22.016-13.312-37.888-22.016-62.976-23.552-68.096-18.944-53.248q-13.312-40.96-33.28-56.832t-49.664-15.872l-35.84 0-65.536 0-86.016 0-96.256 0-253.952 0 14.336-92.16 517.12 0q49.152 0 49.152-41.984 0-20.48-9.728-35.328t-38.4-14.848l-49.152 0-94.208 0-118.784 0-119.808 0-99.328 0-55.296 0q-20.48 0-34.304 9.216t-23.04 24.064-14.848 32.256-8.704 32.768q-1.024 6.144-5.632 29.696t-11.264 58.88-14.848 78.848-16.384 87.552q-19.456 103.424-44.032 230.4l-76.8 0q-15.36 0-25.6 7.68t-16.896 18.432-9.216 23.04-2.56 22.528q0 20.48 13.824 33.792t37.376 13.312l21.504 0 21.504 0 25.6 0 34.816 0q20.48 0 32.768-6.144t19.456-15.36 10.24-19.456 5.12-17.408q2.048-8.192 4.096-23.04t4.096-30.208q3.072-18.432 6.144-38.912l700.416 0zM867.328 701.44l-374.784 0 135.168 135.168q23.552 23.552 51.712 24.064t51.712-23.04z"  horiz-adv-x="1024" />

    
    <glyph glyph-name="gantanhao" unicode="&#58907;" d="M512.777951 804.591378C233.187958 804.591378 6.538403 577.941823 6.538403 298.35183c0-279.591802 226.656792-506.248594 506.239548-506.248594 279.591802 0 506.248594 226.656792 506.248594 506.248594C1019.026544 577.941823 792.369753 804.591378 512.777951 804.591378L512.777951 804.591378zM597.97077 635.951604l-24.3987-478.242375-122.006163 0L427.165399 635.951604 597.97077 635.951604 597.97077 635.951604zM509.624537-69.559067c-53.452438 0-84.821936 38.562827-84.821936 84.843647 0 49.591633 36.0173 85.954488 85.983435 85.954488 51.124014 0 84.8147-36.362855 84.8147-85.954488C595.598926-33.196212 561.90824-69.559067 509.624537-69.559067L509.624537-69.559067zM509.21747-150.637795"  horiz-adv-x="1024" />

    
    <glyph glyph-name="ordinarymobile" unicode="&#59011;" d="M684.864 771.424 339.136 771.424c-43.2 0-78.592-35.456-78.592-78.592l0-785.6c0-43.264 35.392-78.72 78.592-78.72l345.728 0c43.136 0 78.528 35.52 78.528 78.72L763.392 692.832C763.392 735.968 728 771.424 684.864 771.424M464.896 708.512l94.208 0c8.832 0 15.744-7.04 15.744-15.68 0-8.704-6.912-15.744-15.744-15.744L464.896 677.088c-8.704 0-15.68 7.04-15.68 15.744C449.216 701.472 456.128 708.512 464.896 708.512M512-139.872c-26.048 0-47.168 21.12-47.168 47.104 0 26.112 21.12 47.104 47.168 47.104s47.104-20.992 47.104-47.104C558.976-118.752 538.112-139.872 512-139.872M732.032-14.24 292.032-14.24 292.032 614.304l440 0L732.032-14.24z"  horiz-adv-x="1024" />

    
    <glyph glyph-name="nengyuanxiaofeiqushi" unicode="&#59157;" d="M506.140549 657.036649c1.076518 0 2.421142 0.538259 4.03592 1.614777 3.228531 2.152013 7.53358 5.918803 12.914124 11.30037 6.457062 5.918803 12.914124 10.223852 19.371186 12.914124 6.457062 2.690272 15.066137 1.882883 25.828248-2.421142 5.380544-1.614777 9.685593-3.900843 12.914124-6.860245 3.228531-2.959402 6.323009-5.78475 9.282411-8.475022 2.959402-2.690272 6.187933-4.977361 9.685593-6.860245 3.497661-1.882883 7.936763-2.825348 13.317307-2.825348s9.954723 0.807389 13.721513 2.421142c3.76679 1.613754 7.398504 3.094478 10.896164 4.439102s6.995321 2.287089 10.492982 2.825348c3.497661 0.538259 7.667633 0 12.510942-1.614777 5.380544-2.152013 9.013281-5.246491 10.896164-9.282411 1.882883-4.03592 2.421142-8.205892 1.614777-12.510942-0.807389-4.305049-2.690272-8.609075-5.649674-12.914124-2.959402-4.305049-6.592139-7.80271-10.896164-10.492982-10.223852-6.457062-18.026562-13.049201-23.407106-19.774369-5.380544-6.726192-10.762111-13.855566-16.142655-21.389146-2.690272-3.76679-5.649674-8.071839-8.878205-12.914124s-6.187933-9.685593-8.878205-14.528901c-3.228531-5.918803-6.726192-11.568477-10.492982-16.950044L422.197718 532.737692c-3.76679 6.457062-7.53358 12.644995-11.30037 18.563798-3.228531 5.380544-6.726192 10.762111-10.492982 16.142655-3.76679 5.380544-6.995321 10.223852-9.685593 14.528901-5.380544 8.071839-11.434423 15.201214-18.160615 21.389146s-13.317307 11.703553-19.774369 16.545838c-6.995321 4.843308-11.837606 11.434423-14.528901 19.774369-2.690272 8.339946-0.26913 15.470343 7.264451 21.389146 3.76679 2.690272 8.071839 3.76679 12.914124 3.228531 4.843308-0.538259 9.954723-1.613754 15.335267-3.228531s10.627035-3.228531 15.739473-4.843308 9.819646-1.882883 14.124695-0.807389c7.53358 1.614777 13.183254 4.439102 16.950044 8.475022 3.76679 4.03592 10.223852 9.013281 19.371186 14.932084 6.995321 4.305049 14.798031 5.78475 23.407106 4.439102 8.609075-1.345648 15.066137-4.169973 19.371186-8.475022 2.152013-2.690272 4.439102-4.977361 6.860245-6.860245 2.421142-1.882883 4.977361-3.631714 7.667633-5.246491C499.952616 660.53431 502.912018 658.651426 506.140549 657.036649zM597.346807 495.609073c6.457062-8.609075 14.528901-18.026562 24.214495-28.249391 8.071839-9.147334 18.026562-19.506263 29.864168-31.074739 11.837606-11.5695 25.559119-23.810289 41.164538-36.724413 12.914124-11.30037 26.232454-24.617677 39.952944-39.952944 13.721513-15.335267 25.694195-33.226752 35.918048-53.674457 10.223852-20.447704 17.353227-43.988864 21.389146-70.624501s3.362584-56.364729-2.01796-89.188298c-4.843308-26.904767-14.393825-52.329832-28.653597-76.274174-14.259772-23.945365-33.226752-44.796252-56.902988-62.553685-23.676236-17.757432-51.791573-31.882128-84.346013-42.37511-32.55444-10.492982-69.547982-15.739473-110.98165-15.739473-42.509163 0-80.176041 6.053879-112.99961 18.160615-32.82357 12.106736-60.669778 27.846208-83.538625 47.217395-22.868847 19.371186-41.029462 41.029462-54.481845 64.974827-13.452383 23.945365-22.330588 47.755654-26.635637 71.431889-4.843308 26.366508-5.51562 51.656497-2.01796 75.870991s9.82067 46.948265 18.968004 68.203358c9.147334 21.255093 20.581758 40.760332 34.30327 58.517765 13.721513 17.757432 28.653597 33.630958 44.796252 47.621601 13.990642 12.375865 26.635637 24.079418 37.934984 35.110659 11.30037 11.031241 20.716834 21.120017 28.249391 30.267351 9.147334 10.223852 17.219173 19.909445 24.214495 29.05678L597.346807 495.61112zM511.790222 247.817524l-21.792329 21.792329L473.04785 286.559896c-5.380544 5.380544-9.147334 9.416464-11.30037 12.106736-4.305049 3.76679-9.954723 6.860245-16.950044 9.282411-6.995321 2.421142-12.914124 0.941442-17.757432-4.439102-4.305049-5.918803-5.380544-11.703553-3.228531-17.353227 2.152013-5.649674 4.574179-10.088776 7.264451-13.317307l12.106736-11.30037c5.918803-6.457062 12.375865-13.452383 19.371186-20.985964 8.071839-8.609075 16.950044-17.757432 26.635637-27.443026l-0.807389-16.950044-54.885028 0c-4.843308 0-9.013281-1.882883-12.510942-5.649674-3.497661-3.76679-5.246491-7.80271-5.246491-12.106736 0-4.305049 1.614777-8.071839 4.843308-11.30037 3.228531-3.228531 7.53358-4.842285 12.914124-4.842285l54.885028 0 0-28.249391-54.885028 0c-4.843308 0-9.013281-1.479701-12.510942-4.439102s-5.246491-6.860245-5.246491-11.703553c-0.538259-4.305049 0.941442-7.936763 4.439102-10.896164s7.936763-4.439102 13.317307-4.439102l54.885028 0 0-16.142655c0.538259-7.53358 2.959402-12.780071 7.264451-15.739473 4.305049-2.959402 9.685593-4.439102 16.142655-4.439102 6.457062-0.538259 11.703553 1.479701 15.739473 6.053879 4.03592 4.574179 6.053879 9.282411 6.053879 14.124695l0 16.142655 56.499805 0c5.380544 0 9.82067 1.210571 13.317307 3.631714s4.977361 6.323009 4.439102 11.703553c0 11.30037-7.53358 16.950044-22.599717 16.950044l-51.656497 0 0.807389 27.443026 52.463885 0.807389c7.53358-0.538259 12.914124 0.941442 16.142655 4.439102 3.228531 3.497661 4.843308 7.667633 4.843308 12.510942 0 4.305049-1.74883 8.205892-5.246491 11.703553-3.497661 3.497661-9.013281 5.246491-16.545838 5.246491l-52.463885 0 0 15.335267c9.147334 8.609075 17.488303 16.950044 25.02086 25.02086 6.457062 6.457062 12.914124 13.049201 19.371186 19.775392 6.457062 6.726192 11.30037 11.434423 14.528901 14.124695 12.375865 10.762111 15.066137 20.178575 8.071839 28.249391-3.76679 4.843308-8.609075 7.264451-14.528901 7.264451s-11.30037-2.152013-16.142655-6.457062c-2.690272-2.152013-7.264451-6.053879-13.721513-11.703553-6.457062-5.649674-12.914124-11.434423-19.371186-17.353227C529.278525 264.229309 520.937556 256.427622 511.790222 247.817524z"  horiz-adv-x="1024" />

    
    <glyph glyph-name="dongtaiyemianxiaotubiao03" unicode="&#58905;" d="M512 812 113.4592 573.57184l401.12128-240.06656 398.62272 238.51008L512 812zM74.79296 27.24736 474.64448-212 474.64448 268.09216 74.79296 507.38048 74.79296 27.24736zM549.19168 265.02016 549.19168-212l400.01536 239.24736L949.20704 504.22656 549.19168 265.02016z"  horiz-adv-x="1024" />

    
    <glyph glyph-name="msnui-cart-full" unicode="&#58993;" d="M361.804 120.851q17.361 0 32.894-6.397t26.954-17.817 18.274-26.954 6.853-32.894-6.853-32.894-18.274-26.954-26.954-18.274-32.894-6.853q-18.274 0-33.808 6.853t-26.954 18.274-18.274 26.954-6.853 32.894 6.853 32.894 18.274 26.954 26.954 17.817 33.808 6.397zM741.908 119.023q17.361 0 33.35-6.397t27.411-17.817 18.274-26.954 6.853-32.894-6.853-32.894-18.274-26.954-27.411-18.274-33.35-6.853-32.894 6.853-26.954 18.274-18.274 26.954-6.853 32.894 6.853 32.894 18.274 26.954 26.954 17.817 32.894 6.397zM895.412 638.012q25.584 0 39.746-6.853t20.102-16.904 5.481-21.472-3.197-19.645-11.878-33.808-19.645-56.194-21.015-60.761-16.904-47.513q-11.878-36.548-29.696-50.71t-44.315-14.162h-479.699l12.792-82.234h461.425q43.858 0 43.858-37.463 0-18.274-8.68-31.523t-34.264-13.249h-478.784q-18.274 0-30.609 8.224t-20.559 21.472-13.249 28.781-7.766 29.238q-0.914 5.481-5.026 26.499t-10.051 52.538-13.249 70.356-14.62 78.121q-17.361 92.286-39.29 205.586h-68.529q-13.707 0-22.843 6.853t-15.076 16.446-8.224 20.559-2.284 20.102q0 18.274 12.335 30.153t33.35 11.878h92.286q18.274 0 29.238-5.481t17.361-13.707 9.137-17.361 4.569-15.534q1.827-7.31 3.655-20.559t3.655-26.954q2.742-16.446 5.481-34.721h624.979zM826.884 667.25h-334.418l120.61 120.61q21.015 21.015 46.142 21.472t46.142-20.559z"  horiz-adv-x="1024" />

    
    <glyph glyph-name="qiyeyaoqing" unicode="&#58999;" d="M536.672-123.328c-7.84-15.744-18.784-15.008-24.352 1.728l-103.072 309.6c-5.568 16.704-23.552 35.552-39.968 41.92l-291.488 112.768c-16.416 6.336-16.64 17.248-0.48 24.224l865.28 373.536c16.16 6.976 22.976-0.224 15.136-15.968L536.672-123.328zM486.816 254.528c-12.864-12.032-18.848-35.488-13.28-52.224l50.816-152.672c5.568-16.704 16.512-17.472 24.352-1.728l230.432 464c7.84 15.744 3.712 18.848-9.152 6.816L486.816 254.528zM250.272 370.208c-16.16-6.976-15.968-17.888 0.48-24.256l138.496-53.6c16.416-6.368 40.384-1.76 53.248 10.272l276.736 258.208c12.864 12.032 10.176 16.128-5.984 9.152L250.272 370.208z"  horiz-adv-x="1024" />

    
    <glyph glyph-name="zhifubao1" unicode="&#59051;" d="M1023.648242 110.722129 1023.648242 614.503779c0 108.597339-88.13141 196.728749-196.792705 196.728749L197.080507 811.232528C88.483168 811.232528 0.351758 723.101118 0.351758 614.503779l0-629.77503c0-108.597339 88.067454-196.728749 196.728749-196.728749l629.77503 0c96.765474 0 177.286116 69.967897 193.722816 162.000625-52.188121 22.576479-278.336644 120.237337-396.143651 176.454687-89.666354-108.597339-183.553807-173.768534-325.088502-173.768534s-235.997752 87.172069-224.677534 193.850728C82.151521 216.569359 130.1825 331.050653 338.80707 311.416151 448.747486 301.119231 499.080882 280.589345 588.747236 250.977703c23.216039 42.53076 42.466804 89.346574 57.112735 139.168322L248.245331 390.146025 248.245331 429.542939l196.728749 0L444.97408 500.278309 205.011055 500.278309 205.011055 543.640497l239.963025 0L444.97408 645.714321c0 0 2.174505 15.989008 19.826369 15.989008L563.164824 661.703329l0-118.062832 255.824121 0 0-43.362188-255.824121 0L563.164824 429.542939l208.688527 0c-19.186809-78.090313-48.286803-149.848979-84.74174-212.525888C747.741927 195.080132 1023.648242 110.722129 1023.648242 110.722129L1023.648242 110.722129 1023.648242 110.722129zM283.676972 20.224346c-149.529199 0-173.19293 94.399101-165.262382 133.859971 7.866592 39.269003 51.164824 90.497783 134.307663 90.497783 95.550309 0 181.123478-24.431204 283.836862-74.444819C464.416714 76.185872 375.773656 20.224346 283.676972 20.224346L283.676972 20.224346z"  horiz-adv-x="1024" />

    
    <glyph glyph-name="yuyue" unicode="&#59035;" d="M512.391415 749.15672c-248.0177 0-449.112718-201.090924-449.112718-449.121927 0-248.027933 201.095018-449.123974 449.112718-449.123974 248.028956 0 449.124997 201.096041 449.124997 449.123974C961.515389 548.064772 760.420371 749.15672 512.391415 749.15672zM655.840524 433.086088c38.959314-50.970882 41.545208-118.287033 11.888771-170.83483l-19.532869 25.544793c17.97028 40.981367 14.208607 90.052992-14.875802 128.111796-29.141714 38.012755-75.510788 54.454216-119.746268 47.837518l-19.540032 25.544793C552.534693 504.108654 616.881211 484.064133 655.840524 433.086088L655.840524 433.086088zM582.449004 373.415057c-16.551978 21.666462-42.99421 31.039947-68.252477 27.28032l-11.123338 14.540158c33.353642 8.477069 70.01768-2.976798 92.239797-32.003901 22.230304-29.01994 23.703865-67.419506 6.80601-97.399307l-11.187807 14.542204C601.215416 323.726378 599.073636 351.686173 582.449004 373.415057zM347.293239 517.748303c6.508227 6.458085 17.124006 6.624884 23.684422 0 0.056282 0 85.831854-85.502349 85.831854-85.502349l0-0.110517c6.296403-6.284123 6.90834-16.789385 0-23.746844l0-0.056282c0-0.056282-30.244838-30.151717-30.244838-30.151717L317.08524 487.540304 347.293239 517.748303zM407.138232 203.928944c-151.688771 155.166989-116.266004 249.929236-100.317777 269.862217l109.572558-109.250216c-15.609513-15.609513-0.499373-37.83777 16.624632-58.948577 24.364921-30.147624 52.488445-56.869219 76.909647-76.742848 36.880979-30.036084 56.139601-43.280736 71.072709-28.409027l106.833167-106.664322C670.032758 75.363823 566.968427 40.392334 407.138232 203.928944L407.138232 203.928944zM728.363258 137.391529l-0.049119-0.048095-30.212092-30.147624-107.170858 106.942661 30.203906 30.209022c6.564509 6.515391 17.124006 6.624884 23.76117 0.056282 0.056282-0.056282 83.419921-83.089393 83.419921-83.089393l0-0.107447C734.597239 154.853226 735.266481 144.302939 728.363258 137.391529L728.363258 137.391529z"  horiz-adv-x="1024" />

    
    <glyph glyph-name="youhuiquan" unicode="&#58985;" d="M291.969465 387.872c1.984-12.736 7.36-23.616 16.128-32.512 8.064-8.128 17.92-13.248 29.696-15.36C349.569465 337.952 362.497465 339.744 376.577465 345.44l-78.72 79.808C291.969465 413.088 289.985465 400.672 291.969465 387.872zM530.625465 315.936C517.249465 317.28 501.761465 313.056 484.161465 303.264l88.704-89.92c9.28 13.696 13.248 28.416 11.968 44.16-1.28 15.744-7.616 29.376-19.008 40.896C555.713465 308.704 543.937465 314.528 530.625465 315.936zM909.697465 324.192 439.233465 753.312c-29.696 30.08-428.608 15.744-428.608 15.744S-13.950535 305.12 11.649465 301.344l466.816-447.488c30.272-30.72 79.36-30.72 109.632 0l294.208 331.456C923.457465 233.184 961.793465 289.824 909.697465 324.192zM92.609465 557.6c-31.616 32.064-31.616 84.032 0 116.032 31.616 32.064 82.88 32.064 114.432 0 31.616-32.064 31.616-84.032 0-116.032C175.489465 525.536 124.225465 525.536 92.609465 557.6zM632.769465 85.728 591.361465 127.712c-29.44-23.36-60.544-35.072-93.248-35.072-32.768 0-66.368 12.864-100.8 38.528l52.992 66.688C464.833465 188 479.873465 181.984 495.361465 179.872c15.488-2.176 29.248-1.088 41.408 3.2l-95.296 96.64C403.201465 258.208 368.513465 249.12 337.473465 252.512 306.369465 255.904 278.529465 270.048 253.953465 294.944 229.057465 320.16 216.065465 349.28 214.849465 382.368 213.569465 415.392 224.769465 446.432 248.257465 475.552L225.729465 498.336l32.96 33.472 22.528-22.848c27.008 21.504 54.4 32.64 82.24 33.344C391.297465 543.008 418.561465 533.792 445.249465 514.72L395.201465 448.8C373.825465 463.392 352.577465 466.464 331.521465 458.016L420.481465 367.84C466.753465 394.72 504.321465 406.88 533.185465 404.384c28.864-2.56 55.616-16.256 80.192-41.152 27.456-27.84 42.304-59.712 44.48-95.616 2.176-35.904-9.344-71.04-34.688-105.28l42.56-43.136L632.769465 85.728zM979.969465 368.416 579.777465 750.816c-27.264 22.72-87.04 19.456-87.04 19.456l440.704-418.624c75.072-47.872 23.488-131.904 23.488-131.904s-342.08-379.776-335.616-383.296c29.376-16 40.128-10.24 64.896 14.912l295.424 331.456C1042.177465 269.984 1034.433465 316.832 979.969465 368.416z"  horiz-adv-x="1025" />

    
    <glyph glyph-name="820youjiantou" unicode="&#60088;" d="M511.674589 745.485097c-245.843174 0-445.138196-199.295022-445.138196-445.138196s199.295022-445.138196 445.138196-445.138196 445.138196 199.295022 445.138196 445.138196S757.517763 745.485097 511.674589 745.485097zM542.243815 59.113721 542.243815 199.812183 222.98763 199.812183 222.98763 393.207845 542.243815 393.207845 542.243815 541.580081l258.116709-243.790422L542.243815 59.113721z"  horiz-adv-x="1024" />

    
    <glyph glyph-name="zhuanfa" unicode="&#58887;" d="M512.186753 745.396069c-246.400876 0-446.14206-199.73402-446.14206-446.14206 0-246.39269 199.741183-446.141036 446.14206-446.141036 246.39269 0 446.141036 199.748347 446.141036 446.141036C958.328813 545.662049 758.580466 745.396069 512.186753 745.396069zM285.052686 472.784228l38.458917 0.284479-38.284955 0 0 51.427276 218.919988 0 0-51.427276L337.319074 473.068707l0-308.98833-52.266387 0.048095L285.052686 472.784228zM754.127038 112.68687 285.163203 112.68687l0 51.346435 416.85606 0 0 92.778056 52.107775 0L754.127038 112.68687zM639.716288 257.047746l0 91.431386c0 0-148.228973 24.128537-249.243621-90.465384 0 0 14.646582 186.029904 249.236458 184.445826l0 92.048439 156.38677-138.722458L639.716288 257.047746z"  horiz-adv-x="1024" />

    
    <glyph glyph-name="tuijian" unicode="&#58911;" d="M261.370311-50.587773c-16.513092-0.530073-75.722612 0-76.082816 0-21.227464 0-40.073694 20.001543-44.856627 46.924729l-34.209126 374.816594c0 28.02938 22.573111 58.800197 52.694129 58.800197l0-0.192382 129.403209-0.38374c2.211365 0 4.375657 0.240477 6.585999 0.335644l0-458.520995c-5.961782-4.230348-11.585873-8.269337-15.575744-11.202133C273.84646-44.048847 264.688893-50.201987 261.370311-50.587773L261.370311-50.587773zM865.568153 187.448598l-4.976338 0 0.457418-33.463136c3.990894-1.488911 18.845207-5.959735 18.868743-35.049261-0.023536-31.153534-40.936341-43.702338-75.43097-43.655266l0.119727 0-0.601704-31.92306c13.990642-3.123131 19.086707-15.383362 19.063171-34.999119 0-34.279734-27.885094-58.945507-100.267635-58.945507L437.481308-50.58675c-13.653975 0-41.395806 7.934716-57.379848 15.672958-15.074324 7.261381-39.136346 20.819165-47.52541 25.434276L332.576049 435.819338c71.755254 19.856233 130.963751 81.733513 145.892765 110.291942 16.250102 37.838793 24.423249 77.358879 24.423249 164.043147 0 43.079144 15.815197 48.847521 32.668027 48.847521 14.881942 0 38.535665-16.394389 50.507324-35.146475 35.410488-55.289234 43.724851-174.426635-0.337691-263.659959l-7.597025-30.865985 252.916267 0.047072c43.054585-2.355651 86.3476-19.952424 86.3476-51.732222l-0.287549-9.952676c0.071631-0.38374-1.107217-27.548426-15.505136-39.47199-12.065803-10.047844-21.875217-10.383488-21.875217-10.383488l-0.289596-32.934087c0 0 14.615882-1.972934 22.212908-7.212262 11.490705-7.885598 16.658402-22.790052 16.081257-39.039131C916.989289 218.024987 885.161397 187.448598 865.568153 187.448598L865.568153 187.448598z"  horiz-adv-x="1024" />

    
    <glyph glyph-name="jinbi1" unicode="&#59080;" d="M512 415.8c169.7 0 350 55.7 350 159.1S681.7 734 512 734c-169.7 0-350-55.7-350-159.1S342.3 415.8 512 415.8zM512 670.4c174.8 0 286.4-56.5 286.4-95.5S686.8 479.5 512 479.5 225.6 536 225.6 574.9 337.2 670.4 512 670.4zM225.5 441.2c-14.2 10.4-34.1 7.2-44.4-7-13-17.8-19.4-36.8-19-56.4 0.8-47.9 41.8-89.6 115.2-117.5 60.7-23.1 139.4-35.5 222.9-35.5 4.8 0 9.7 0.1 14.6 0.1 169.7 3 349 61.9 347.2 165.1-0.2 15-4.4 29.6-12.6 43.5-8.9 15.2-28.6 20.2-43.5 11.3-15.2-8.9-20.3-28.4-11.3-43.6 2.5-4.3 3.7-8.2 3.8-12.2 0.7-38.9-109.9-97.3-284.7-100.5-81.4-1-156.9 9.7-213.7 31.3-44.8 17-73.9 40.2-74.2 59.2-0.1 5.4 2.2 11.4 6.7 17.7C242.8 411 239.7 430.9 225.5 441.2zM801.4 252.8c-14.5-9.8-18.5-29.6-8.6-44.2 3.8-5.6 5.6-10.7 5.6-15.5 0-38.9-111.6-95.5-286.4-95.5s-286.4 56.6-286.4 95.5c0 4.7 1.7 9.6 5.1 14.8 9.6 14.7 5.6 34.4-9.1 44.1-14.7 9.6-34.4 5.5-44.1-9.1-10.3-15.7-15.5-32.4-15.5-49.7C162 89.7 342.3 34 512 34c169.7 0 350 55.7 350 159.1 0 17.7-5.5 34.9-16.4 51.1C835.8 258.8 816 262.6 801.4 252.8z"  horiz-adv-x="1024" />

    
    <glyph glyph-name="jinbi2" unicode="&#58918;" d="M814.114782 528.881874c-0.056282 41.400922-33.708729 78.858022-94.77862 105.482403-55.719023 24.292266-129.353067 37.669948-207.336162 37.669948-77.984119 0-151.61714-13.377682-207.336162-37.669948-61.120033-26.646893-94.780667-64.144926-94.780667-105.58678 0-3.837398 0.291642-7.640004 0.864694-11.404748l-0.864694-0.016373 0-111.916952 0-54.535057 0-57.000202 0-54.91675 0-45.361117 0-66.174142 0-100.278891 9.56689-6.019087c2.672876-1.682315 66.656119-41.417295 170.747849-61.483306 38.839587-7.486508 78.202083-11.238972 117.640304-11.238972 22.449291 0 44.922119 1.215688 67.337641 3.650133 77.118402 8.378831 153.692405 31.281447 227.595578 68.072375l11.345396 5.64865 0 100.278891 0 79.068823 0 32.466436L814.116829 305.429663l0 44.104497 0 67.430762L814.116829 528.881874 814.114782 528.881874zM512 631.101977c153.920602 0 261.184581-53.92619 261.184581-102.32448 0-0.225127-0.01842-0.451278-0.023536-0.677429l-0.621147-0.01228 0.046049-5.548366c-8.67866-46.676066-113.249297-96.087429-260.585947-96.087429-153.920602 0-261.184581 53.92619-261.184581 102.32448C250.814396 577.175787 358.079398 631.101977 512 631.101977zM571.929928-7.096237c-57.515948-6.362918-115.457592-4.137227-172.216293 6.622838-67.997674 12.889565-122.420167 36.362162-148.898215 50.741661l0 54.537104c29.005614-13.730723 76.982302-32.825616 139.382491-44.854581 38.839587-7.486508 78.202083-11.238972 117.640304-11.238972 22.449291 0 44.922119 1.215688 67.337641 3.650133 66.875107 7.265474 133.339868 25.460882 198.008726 54.156434l0-55.241139C707.543581 20.052077 639.898949 0.42711 571.929928-7.096237zM772.876566 163.424438l0.308015 0.00614 0-11.875468c-65.640999-31.224142-133.285632-50.849108-201.254653-58.372455-57.515948-6.362918-115.457592-4.137227-172.216293 6.622838-67.997674 12.889565-122.420167 36.362162-148.898215 50.741661l0 2.920516 0 40.939411 0 19.558451 0 2.375094c29.005614-13.730723 76.982302-32.825616 139.382491-44.854581 38.839587-7.486508 78.202083-11.238972 117.640304-11.238972 22.449291 0 44.922119 1.215688 67.337641 3.650133 66.875107 7.265474 133.339868 25.460882 198.008726 54.156434l0-13.682627-0.644683-0.01228L772.876566 163.424438zM772.876566 263.703329l0.308015 0.00614 0-0.6191c-65.640999-31.224142-133.285632-50.849108-201.254653-58.372455-57.515948-6.362918-115.457592-4.137227-172.216293 6.622838-67.997674 12.889565-122.420167 36.362162-148.898215 50.741661L250.815419 294.684948l0 30.81482 0 2.756787c29.005614-13.730723 76.982302-32.825616 139.382491-44.854581 38.839587-7.486508 78.202083-11.238972 117.640304-11.238972 22.449291 0 44.922119 1.215688 67.337641 3.650133 66.875107 7.265474 133.339868 25.460882 198.008726 54.156434l0-25.320689-0.644683-0.01228L772.876566 263.703329zM772.876566 375.237565l0.308015 0.00614 0-0.237407c-65.640999-31.224142-133.285632-50.849108-201.254653-58.372455-57.515948-6.362918-115.457592-4.137227-172.216293 6.622838-67.997674 12.889565-122.420167 36.362162-148.898215 50.741661l0 32.221866 0 31.196513 0 17.48421c14.406105-11.70253 32.434713-22.37459 53.848419-31.710212 55.719023-24.292266 129.353067-37.669948 207.336162-37.669948 77.983095 0 151.61714 13.377682 207.336162 37.669948 21.413706 9.335622 39.442314 20.007683 53.848419 31.710212l0-5.205559 0-33.512255-0.644683-0.01228L772.876566 375.237565z"  horiz-adv-x="1024" />

    
    <glyph glyph-name="zixun" unicode="&#58900;" d="M870.652165 739.09561 149.713019 739.09561c-42.361768 0-76.70412-34.341393-76.70412-76.70412l0-575.246382c0-42.361768 34.341393-76.70412 76.70412-76.70412l157.742981 0L307.456-118.277154c0-10.590921 8.585109-19.17603 19.17603-19.17603 4.652105 0 8.914936 1.657768 12.236225 4.413363l0.086292-0.04027 184.871311 143.521079 346.826307 0c42.361768 0 76.70412 34.342352 76.70412 76.70412L947.356285 662.391491C947.356285 704.754217 913.012974 739.09561 870.652165 739.09561zM874.426966 627.910112l0-506.16761c0-21.181843-17.170217-38.35206-38.35206-38.35206L503.370787 83.390442l-88.064-72.949453L380.004674-18.801498l0 29.242487 0 72.949453L184.089888 83.390442c-21.180884 0-38.35206 17.170217-38.35206 38.35206L145.737828 627.910112c0 21.180884 17.171176 38.35206 38.35206 38.35206l651.985019 0C857.256749 666.262172 874.426966 649.090996 874.426966 627.910112L874.426966 627.910112zM342.690996 426.115955c-9.370367 8.330067-21.71206 13.389663-35.235955 13.389663-17.194187 0-32.478442-8.179536-42.172884-20.859685-6.825708-8.92836-10.880479-20.08785-10.880479-32.193678 0-15.594906 6.728869-29.618337 17.440599-39.325243 9.414472-8.531416 21.906697-13.729079 35.613723-13.729079 16.236345 0 30.768899 7.293603 40.500734 18.782921 7.830532 9.244764 12.552629 21.206772 12.552629 34.271401C360.508404 402.230292 353.621333 416.398502 342.690996 426.115955zM545.450667 426.499476c-9.315715 8.101873-21.484824 13.007101-34.800659 13.007101-14.088629 0-26.894382-5.491056-36.394187-14.450097-10.258217-9.673348-16.660135-23.390921-16.660135-38.603266 0-13.939056 5.375041-26.622082 14.166292-36.090247 9.688689-10.434637 23.526112-16.964075 38.88803-16.964075 16.071431 0 30.472629 7.145948 40.202547 18.433918 8.008869 9.291745 12.850816 21.390861 12.850816 34.620404C563.703371 402.438352 556.633169 416.772434 545.450667 426.499476zM745.426936 429.085363c-8.82385 6.547655-19.751311 10.421213-31.581963 10.421213-15.313019 0-29.109213-6.487251-38.793109-16.862442-8.84782-9.478712-14.261213-22.202007-14.261213-36.190921 0-14.088629 5.492015-26.895341 14.451056-36.394187 9.674307-10.257258 23.390921-16.659176 38.603266-16.659176 15.099206 0 28.724734 6.307955 38.385618 16.43194 9.087521 9.521858 14.667745 22.420614 14.667745 36.622382C766.898337 403.921618 758.455131 419.417768 745.426936 429.085363z"  horiz-adv-x="1024" />

    
    <glyph glyph-name="nicheng-copy" unicode="&#58884;" d="M512 861.867c-263.919 0-477.867-213.948-477.867-477.867s213.948-477.867 477.867-477.867 477.867 213.948 477.867 477.867-213.948 477.867-477.867 477.867zM512 651.127c76.868 0 131.755-77.756 124.996-160.222-6.417-78.848-63.283-132.779-124.996-132.779s-118.647 53.931-124.996 132.779c-6.758 82.466 48.128 160.222 124.996 160.222zM680.073 154.146c-43.554-5.188-105.609-5.188-168.073-5.188-61.030 0-118.852 0-167.253 5.188-62.601 6.758-83.9 15.701-83.9 38.775 0 67.721 111.889 122.675 250.061 122.675 138.103 0 252.245-54.955 252.245-122.675 0-23.074-21.367-31.471-83.081-38.775z"  horiz-adv-x="1024" />

    
    <glyph glyph-name="shoucang1" unicode="&#59194;" d="M1030.811826 500.045913c-11.286261 32.01113-39.713391 55.05113-74.195478 60.126609l-243.222261 35.639652-105.627826 216.019478c-15.270957 31.276522-48.261565 51.489391-84.057043 51.489391-35.706435 0-68.652522-20.21287-83.968-51.489391l-105.672348-216.041739L90.86887 560.105739c-34.504348-4.964174-62.953739-27.981913-74.24-60.17113-11.264-32.50087-2.871652-67.806609 21.882435-92.137739l178.509913-175.638261-41.405217-243.378087c-5.810087-33.925565 9.282783-68.719304 38.555826-88.687304 28.627478-19.255652 67.005217-21.370435 97.836522-5.164522l211.745391 112.39513 211.878957-112.417391c13.712696-7.234783 29.094957-11.063652 44.521739-11.063652 19.010783 0 37.420522 5.609739 53.337043 16.317217 29.139478 19.878957 44.210087 54.650435 38.4 88.576l-41.382957 243.400348 178.532174 175.638261C1033.750261 432.150261 1042.142609 467.456 1030.811826 500.045913zM977.764174 439.54087l-195.094261-191.955478 45.278609-266.329043c2.938435-17.096348-4.585739-34.05913-19.478261-44.232348-15.248696-10.24-35.817739-11.330783-52.045913-2.782609l-232.69287 123.481043-232.537043-123.436522c-16.406261-8.637217-36.997565-7.479652-52.045913 2.671304-15.048348 10.262261-22.572522 27.247304-19.634087 44.343652l45.30087 266.284522-195.072 191.955478c-12.377043 12.154435-16.606609 29.718261-11.063652 45.723826 5.765565 16.384 20.524522 28.182261 38.622609 30.786783l266.48487 39.112348 115.97913 237.122783c7.880348 16.11687 25.154783 26.534957 43.987478 26.534957 18.899478 0 36.173913-10.395826 44.054261-26.512696l115.95687-237.122783 266.418087-39.023304c18.075826-2.671304 32.901565-14.514087 38.64487-30.809043C994.370783 469.25913 990.141217 451.717565 977.764174 439.54087zM520.770783 507.14713c-45.590261 0-82.320696-13.913043-109.122783-41.316174-44.744348-45.746087-43.78713-112.194783-43.720348-115.021913 0.26713-12.109913 10.173217-21.726609 22.238609-21.726609 0.133565 0 0.289391 0 0.422957 0 12.265739 0.222609 22.016 10.373565 21.837913 22.639304 0 0.512-0.400696 51.066435 31.254261 83.18887 18.098087 18.387478 44.054261 27.692522 77.06713 27.692522 12.288 0 22.26087 9.97287 22.26087 22.26087S533.058783 507.14713 520.770783 507.14713z"  horiz-adv-x="1036" />

    
    <glyph glyph-name="34" unicode="&#58920;" d="M862.91472 855.067752 173.80293 855.067752c-85.301781 0-163.054633-69.376067-163.054633-154.764829l0-353.948311c0-85.34476 77.752852-164.538427 163.054633-164.538427l89.839121 0 67.586304-197.872626c5.89015-14.705933 20.11513-24.347524 35.909861-24.347524 15.838733 0 30.018687 9.641591 35.909861 24.347524l67.608817 197.872626 392.257825 0c85.324294 0 154.675802 79.193667 154.675802 164.538427L1017.590522 700.303946C1017.590522 785.691685 948.239014 855.067752 862.91472 855.067752zM676.49289 360.317625 289.822316 360.317625c-21.379936 0-38.679951 32.899294-38.679951 54.279231s17.300015 57.769728 38.679951 57.769728l386.670573 0c21.38096 0 38.681998-36.389792 38.681998-57.769728S697.872826 360.317625 676.49289 360.317625zM753.832326 585.157439 289.822316 585.157439c-21.379936 0-38.679951 36.34579-38.679951 57.747215 0 21.35947 17.300015 51.814086 38.679951 51.814086L753.832326 694.718741c21.38096 0 38.679951-30.455639 38.679951-51.814086C792.512277 621.503229 775.213285 585.157439 753.832326 585.157439z"  horiz-adv-x="1024" />

    
    <glyph glyph-name="shengjigonggao" unicode="&#58933;" d="M511.706311 831.977871c-247.27171 0-447.724091-200.454428-447.724091-447.724091 0-247.27171 200.453405-447.723068 447.724091-447.723068 247.27171 0 447.725114 200.452381 447.725114 447.723068C959.431425 631.523443 758.978021 831.977871 511.706311 831.977871zM728.253252 478.42251 506.633782 261.838729l-85.359087 83.503832L293.221228 220.083743l-42.687218 41.754986 170.740686 167.042457 85.359087-83.538625L685.486216 520.047536l-36.811394 35.831067 112.12366-3.065825 4.618181-110.562095L728.253252 478.42251z"  horiz-adv-x="1024" />

    
    <glyph glyph-name="tabbuticon5dis" unicode="&#58901;" d="M699.693288 599.530798c-25.923416 3.27765-52.203966 3.217275-78.108962-0.181125-21.236674-2.785439-42.23287-13.610996-62.384839-20.750603l0.138146-268.127713c0-10.652618-8.643867-19.288299-19.309788-19.288299s-19.281135 8.634658-19.281135 19.288299L520.74671 577.97076c-25.218358 10.627035-51.727105 17.814738-78.854952 21.375843-25.908066 3.399423-52.188616 3.459798-78.107939 0.181125-27.752064-3.50994-54.860469-10.80816-80.622202-21.702278-0.270153-0.693802-0.521886-1.63729-0.521886-2.494821l0-335.959611c25.034163 9.327436 51.081399 15.694447 77.650521 18.964934 58.161654 7.157004 117.281123-0.771573 171.438581-22.923082 54.160527 22.153556 113.292276 30.083156 171.457 22.923082 26.567076-3.270487 52.610218-9.636474 77.650521-18.965957L780.836353 575.334723c0 0.855484-0.251733 1.797949-0.521886 2.491751C754.55171 588.721615 727.442282 596.019835 699.693288 599.530798zM972.998931 401.331737c0 246.493997-200.011336 446.318068-446.648596 446.318068-246.689449 0-446.697715-199.822025-446.697715-446.318068 0-246.446925 200.00929-446.269973 446.697715-446.269973C772.987594-44.938236 972.998931 154.884812 972.998931 401.331737zM782.603603 198.965773c-26.76355 11.57564-54.994522 19.24839-83.918271 22.808472-53.922097 6.636141-108.768239-1.248434-158.612461-22.806425-3.273557-1.415232-6.65763-2.115174-9.986445-2.115174-4.557806-0.001023-8.30413 0.87595-12.842493 2.185782-2.874467 0.829901-101.624539 28.989241-152.453181 22.73684-28.924773-3.560082-57.155744-11.233855-83.909062-22.803355-3.275603-1.415232-6.658653-2.115174-9.988492-2.115174-4.560876 0-9.020444 1.313925-12.969383 3.910053-7.704472 5.064342-12.123109 14.211676-12.123109 25.092491L245.800707 575.3337c0.001023 12.763698 6.407943 29.262464 20.468171 35.332716 29.617551 12.809747 60.874439 21.35947 92.891643 25.408693 29.0445 3.674693 58.492182 3.606131 87.524402-0.202615 29.215392-3.834328 63.130829-13.377682 90.385567-24.527626 27.2619 11.153014 50.501184 20.697391 79.722716 24.530696 29.025057 3.806699 58.472739 3.875261 87.522356 0.202615 32.020274-4.050246 63.276139-12.600993 92.900853-25.414833 14.051017-6.068206 20.455891-22.566972 20.457938-35.325553l0-349.479533c-0.001023-10.883885-4.420683-20.029172-12.126178-25.093515C798.719652 196.273455 790.355147 195.618539 782.603603 198.965773z"  horiz-adv-x="1024" />

    
    <glyph glyph-name="shoucang" unicode="&#59015;" d="M507.372098 767.861598 209.37203 589.582215 509.302053 410.074865 807.356356 588.417693ZM180.45749 181.075311 479.436862 2.190131 479.436862 361.157759 180.45749 540.091034ZM535.178397 358.866576 535.178397 2.190131 834.302055 181.075311 834.302055 537.721057Z"  horiz-adv-x="1024" />

    
    <glyph glyph-name="yiguoqi" unicode="&#58961;" d="M218.7 803.6C-13 641.6-69.6 322.4 92.4 90.7c162-231.7 481.2-288.3 712.9-126.3 231.7 162 288.3 481.2 126.3 712.9C769.6 909 450.4 965.6 218.7 803.6zM781.3-1.3C568.5-150 275.5-98.1 126.7 114.7c-148.7 212.8-96.8 505.9 116 654.6C455.5 918 748.5 866.1 897.3 653.3 1046 440.5 994.1 147.5 781.3-1.3zM260.1 744.4C61.1 605.2 12.5 331.1 151.6 132.1c139.1-199 413.2-247.6 612.3-108.5S1011.5 436.9 872.4 635.9C733.2 834.9 459.1 883.5 260.1 744.4zM752 40.7C562.4-91.8 301.3-45.5 168.7 144 36.2 333.6 82.5 594.7 272 727.3 461.6 859.8 722.7 813.5 855.3 624 987.8 434.4 941.5 173.3 752 40.7zM290.9 390c1.9 67.7 34.7 133.6 94.4 175.3s132.9 49.9 197.1 28.4l21.5 15c-73.8 30-160.8 23.3-230.9-25.7S266.5 454.6 269.4 375L290.9 390zM733.1 378c-1.9-67.7-34.7-133.6-94.4-175.3-59.7-41.8-132.9-49.9-197.1-28.4l-21.5-15c73.8-30 160.8-23.3 230.9 25.7S757.5 313.4 754.6 393L733.1 378zM287.1 705.8 320.7 680.4 355.2 704.5 341.4 664.7 375 639.4 333 640.1 319.2 600.3 306.9 640.6 264.8 641.4 299.3 665.5ZM172.2 580.6 213.3 571.8 234.4 608.2 238.8 566.3 280 557.6 241.5 540.5 245.8 498.6 217.7 529.9 179.2 512.8 200.3 549.3ZM444.1 770.7 463.9 733.5 505.3 740.8 476.1 710.5 495.8 673.3 458 691.8 428.7 661.5 434.6 703.2 396.8 721.7 438.2 729ZM613.9 763.1 616.1 721.1 656.7 710.2 617.4 695.1 619.6 653.1 593.1 685.8 553.8 670.7 576.8 706 550.3 738.8 590.9 727.8ZM120.9 418.5 162 428 165.7 469.9 187.3 433.8 228.3 443.2 200.7 411.5 222.4 375.4 183.6 391.9 156 360.1 159.7 402ZM736.9 62.2 703.3 87.6 668.8 63.5 682.6 103.3 649 128.6 691 127.9 704.8 167.7 717.1 127.4 759.2 126.6 724.7 102.5ZM851.8 187.4 810.7 196.2 789.6 159.8 785.2 201.7 744 210.4 782.5 227.5 778.2 269.4 806.3 238.1 844.8 255.2 823.7 218.7ZM579.9-2.7 560.1 34.5 518.7 27.2 547.9 57.5 528.2 94.7 566 76.2 595.3 106.5 589.4 64.8 627.2 46.3 585.8 39ZM410.1 4.9 407.9 46.9 367.3 57.8 406.6 72.9 404.4 114.9 430.9 82.2 470.2 97.3 447.2 62 473.7 29.2 433.1 40.2ZM903.1 349.5 862 340 858.3 298.1 836.7 334.2 795.7 324.8 823.3 356.5 801.6 392.6 840.4 376.1 868 407.9 864.3 366ZM393.6 301.2l-110.7-77.5 34.7-49.5c4.7-6.7 10.3-7.7 16.9-3.1l90 63c3.1 2.2 5.2 5.2 6.2 9.1 0.9 4.6-4.8 16.6-17 36.2l20.4 6.3c13.6-24 20-39.4 19.3-46.3-1.5-7-5.8-13.1-12.7-18.5l-99.5-69.7c-14.8-10.4-27.7-7.8-38.6 7.7l-65.4 93.5 17.2 12.1L271.5 240l93.4 65.4-29.9 42.7-118.9-83.3-11.4 16.3 136.1 95.3L393.6 301.2zM608 334c-6.2-4.4-17.4-12-33.6-23-12.2-8.3-22.8-14.3-31.9-17.8-8.9-3-18.4-3.5-28.5-1.3-4.6 1.2-8 1-10.3-0.5-3.8-2.7-4.6-15.6-2.3-38.7l-20.7 2.9c-1.3 21.2 0.4 36.3 5 45.2l-35.4 50.6-24.4-17.1L414.5 350.3l40.7 28.5 47.6-68c1.4 0.1 3-0.2 4.8-0.7 7.6-1.6 14.6-2 21-1 7.4 1.4 16.7 5.8 27.9 13.2 14.3 9.6 27 18.4 38.1 26.1l24.6 17.5c8.2 6.3 14.5 11.2 18.8 14.8l7.9-20.1L608 334zM387.8 419.3c18.6-0.9 35.4-3 50.3-6.5l-3.7-21c-14.4 4.2-31.2 7-50.4 8.3L387.8 419.3zM561.2 337l-15.3 13.9c8.3 4.7 15.9 9.5 22.8 14.4 4.5 3.2 5.5 6.7 2.8 10.5l-50.7 72.5-64-44.8-11.6 16.5 64 44.8-19.3 27.6 17.2 12.1 19.3-27.6 24 16.8 11.6-16.5-24-16.8 53.6-76.6c8-11.4 5.9-21.3-6.2-29.7L561.2 337zM488.3 406c19.4-5.8 35.3-11.6 47.7-17.4l-7.3-20.1c-12.8 6.6-28.7 12.9-47.9 19.1L488.3 406zM678.5 428.8c2.5-17 2.6-33.4 0.5-49.1l-20.2 0.3c2.7 14.5 3.2 29.8 1.5 46L678.5 428.8zM563.5 543.7l16.5 11.6 12.9-18.5 31 21.7-12.7 18.1 16.5 11.6 12.7-18.1 9.3 6.5 11.1-15.8-9.3-6.5 50.4-71.9 10.2 7.2 11.1-15.8-85.9-60.2-11.1 15.8 11.7 8.2L587.5 509.4l-9.7-6.8-11.1 15.8 9.7 6.8L563.5 543.7zM635 542.7l-31-21.7 9.9-14.2 31 21.7L635 542.7zM634.1 477.9l31 21.7-9.8 14-31-21.7L634.1 477.9zM654.4 449.1l31 21.7-9.8 14-31-21.7L654.4 449.1zM698.8 453.5c13.7-4.1 25.4-8.3 35-12.6-1 23-9.5 46.1-25.5 69.3l-60 85.7 63.5 44.5 98.5-140.6c8.2-11.7 6.4-21.7-5.3-29.9l-18.7-13.1-16.3 13.4c8.9 5.6 15.1 9.5 18.4 11.8 3.9 2.8 4.1 6.7 0.5 11.9l-22.6 32.3-30.5-21.4c13.9-25.2 20.5-49.8 19.7-73.9l-20.1 2.8-5.2-14.3c-10.1 5.6-23 11.1-38.6 16.6L698.8 453.5zM725.3 584.8l-19.2 27.4-29.4-20.6 19.2-27.4L725.3 584.8zM706.7 548.8l19.3-27.6 29.4 20.6-19.3 27.6L706.7 548.8z"  horiz-adv-x="1024" />

    
    <glyph glyph-name="xingquaihao" unicode="&#58922;" d="M512 875.52C240.64 875.52 20.48 655.36 20.48 384c0-271.36 220.16-491.52 491.52-491.52 271.36 0 491.52 220.16 491.52 491.52C1003.52 655.36 783.36 875.52 512 875.52zM802.816 399.36c-24.576-49.152-58.368-92.16-95.232-131.072-56.32-59.392-117.76-113.664-182.272-163.84-9.216-7.168-15.36-7.168-24.576-1.024-71.68 56.32-140.288 116.736-201.728 184.32-34.816 38.912-64.512 80.896-86.016 129.024-31.744 72.704-13.312 156.672 44.032 209.92 63.488 59.392 162.816 55.296 221.184-9.216 7.168-7.168 13.312-15.36 18.432-23.552 5.12-8.192 10.24-17.408 15.36-26.624 8.192 17.408 18.432 33.792 30.72 47.104 69.632 76.8 185.344 70.656 245.76-13.312C834.56 537.6 837.632 468.992 802.816 399.36zM561.152 586.752c-9.216-11.264-15.36-25.6-22.528-37.888-5.12-9.216-11.264-16.384-21.504-18.432-13.312-3.072-25.6 4.096-31.744 16.384-6.144 12.288-12.288 24.576-20.48 35.84-48.128 66.56-139.264 72.704-193.536 12.288-43.008-47.104-51.2-102.4-29.696-161.792 13.312-37.888 36.864-70.656 61.44-101.376 35.84-44.032 75.776-82.944 117.76-120.832 29.696-26.624 60.416-52.224 91.136-77.824 11.264 9.216 21.504 17.408 30.72 25.6 57.344 48.128 113.664 98.304 163.84 155.648 29.696 33.792 55.296 70.656 73.728 111.616 21.504 49.152 19.456 98.304-8.192 145.408C723.968 651.264 620.544 659.456 561.152 586.752z"  horiz-adv-x="1024" />

    
    <glyph glyph-name="tuijian2" unicode="&#58930;" d="M856.64 488l-138.24 0 0 223.36C718.4 777.856 664.128 832 597.632 832 531.072 832 476.8 777.856 476.8 711.36l0-16.832c0-34.752-32.768-206.4-265.92-210.816L194.816 484.032C172.8 484.416 143.552 484.8 143.04 484.864 113.536 483.84 64 469.376 64 384l0-344.64C64-17.6 110.4-64 167.36-64l585.856 0c69.312 0 94.272 77.568 105.088 111.104l100.16 326.912C959.488 377.344 960 380.864 960 384.32 960 441.344 913.6 488 856.64 488zM305.6-2.112 236.8-2.112 236.8 409.344c24.704 1.728 47.616 5.248 68.8 10.24L305.6-2.112z"  horiz-adv-x="1024" />

    
    <glyph glyph-name="shoucang-copy" unicode="&#58913;" d="M512.692 777.382l-394.395-197.075 394.395-197.371 394.446 197.321zM118.297 547.585v-361.229l378.429-197.866v368.594zM528.263-11.508l378.48 197.519v361.574l-378.429-190.5z"  horiz-adv-x="1024" />

    
    <glyph glyph-name="iconset0325" unicode="&#59104;" d="M234.666667 426.666667 192 426.666667c-12.8 0-21.333333-8.533333-21.333333-21.333333 0-12.8 8.533333-21.333333 21.333333-21.333333l42.666667 0c12.8 0 21.333333 8.533333 21.333333 21.333333C256 418.133333 247.466667 426.666667 234.666667 426.666667zM704 384l42.666667 0c12.8 0 21.333333 8.533333 21.333333 21.333333 0 12.8-8.533333 21.333333-21.333333 21.333333l-42.666667 0c-12.8 0-21.333333-8.533333-21.333333-21.333333C682.666667 394.666667 691.2 384 704 384zM234.666667 42.666667 192 42.666667c-12.8 0-21.333333-8.533333-21.333333-21.333333 0-12.8 8.533333-21.333333 21.333333-21.333333l42.666667 0c12.8 0 21.333333 8.533333 21.333333 21.333333C256 34.133333 247.466667 42.666667 234.666667 42.666667zM362.666667 42.666667l-42.666667 0c-12.8 0-21.333333-8.533333-21.333333-21.333333 0-12.8 8.533333-21.333333 21.333333-21.333333l42.666667 0c12.8 0 21.333333 8.533333 21.333333 21.333333C384 34.133333 375.466667 42.666667 362.666667 42.666667zM490.666667 42.666667l-42.666667 0c-12.8 0-21.333333-8.533333-21.333333-21.333333 0-12.8 8.533333-21.333333 21.333333-21.333333l42.666667 0c12.8 0 21.333333 8.533333 21.333333 21.333333C512 34.133333 503.466667 42.666667 490.666667 42.666667zM789.333333 234.666667c-12.8 0-21.333333-8.533333-21.333333-21.333333 0-12.8 8.533333-21.333333 21.333333-21.333333 12.8 0 21.333333 8.533333 21.333333 21.333333C810.666667 226.133333 802.133333 234.666667 789.333333 234.666667zM746.666667 42.666667l-42.666667 0c-12.8 0-21.333333-8.533333-21.333333-21.333333 0-12.8 8.533333-21.333333 21.333333-21.333333l42.666667 0c12.8 0 21.333333 8.533333 21.333333 21.333333C768 34.133333 759.466667 42.666667 746.666667 42.666667zM896 341.333333l0 85.333333 0 85.333333c0 46.933333-38.4 85.333333-85.333333 85.333333l-29.866667 0-51.2 192c-12.8 44.8-59.733333 72.533333-104.533333 59.733333L194.133333 736C147.2 725.333333 121.6 678.4 132.266667 631.466667L142.933333 597.333333 128 597.333333c-46.933333 0-85.333333-38.4-85.333333-85.333333l0-85.333333 0-341.333333 0-85.333333c0-46.933333 38.4-85.333333 85.333333-85.333333l682.666667 0c46.933333 0 85.333333 38.4 85.333333 85.333333l0 85.333333c46.933333 0 85.333333 38.4 85.333333 85.333333l0 85.333333C981.333333 302.933333 942.933333 341.333333 896 341.333333zM810.666667 554.666667c23.466667 0 42.666667-19.2 42.666667-42.666667l0-12.8c-12.8 6.4-27.733333 12.8-42.666667 12.8l-8.533333 0-10.666667 42.666667L810.666667 554.666667zM731.733333 614.4l27.733333-102.4L345.6 512 731.733333 614.4zM204.8 695.466667l430.933333 113.066667c23.466667 6.4 46.933333-6.4 51.2-29.866667l10.666667-40.533333-512-136.533333-10.666667 40.533333C168.533333 665.6 181.333333 689.066667 204.8 695.466667zM85.333333 512c0 23.466667 19.2 42.666667 42.666667 42.666667l25.6 0 10.666667-42.666667L128 512c-14.933333 0-29.866667-4.266667-42.666667-12.8L85.333333 512zM853.333333 0c0-23.466667-19.2-42.666667-42.666667-42.666667L128-42.666667c-23.466667 0-42.666667 19.2-42.666667 42.666667L85.333333 426.666667c0 23.466667 19.2 42.666667 42.666667 42.666667l682.666667 0c23.466667 0 42.666667-19.2 42.666667-42.666667l0-85.333333-85.333333 0c-46.933333 0-85.333333-38.4-85.333333-85.333333l0-85.333333c0-46.933333 38.4-85.333333 85.333333-85.333333l85.333333 0L853.333333 0zM938.666667 170.666667c0-23.466667-19.2-42.666667-42.666667-42.666667l-128 0c-23.466667 0-42.666667 19.2-42.666667 42.666667l0 85.333333c0 23.466667 19.2 42.666667 42.666667 42.666667l128 0c23.466667 0 42.666667-19.2 42.666667-42.666667L938.666667 170.666667zM618.666667 42.666667l-42.666667 0c-12.8 0-21.333333-8.533333-21.333333-21.333333 0-12.8 8.533333-21.333333 21.333333-21.333333l42.666667 0c12.8 0 21.333333 8.533333 21.333333 21.333333C640 34.133333 631.466667 42.666667 618.666667 42.666667zM490.666667 426.666667l-42.666667 0c-12.8 0-21.333333-8.533333-21.333333-21.333333 0-12.8 8.533333-21.333333 21.333333-21.333333l42.666667 0c12.8 0 21.333333 8.533333 21.333333 21.333333C512 418.133333 503.466667 426.666667 490.666667 426.666667zM618.666667 426.666667l-42.666667 0c-12.8 0-21.333333-8.533333-21.333333-21.333333 0-12.8 8.533333-21.333333 21.333333-21.333333l42.666667 0c12.8 0 21.333333 8.533333 21.333333 21.333333C640 418.133333 631.466667 426.666667 618.666667 426.666667zM362.666667 426.666667l-42.666667 0c-12.8 0-21.333333-8.533333-21.333333-21.333333 0-12.8 8.533333-21.333333 21.333333-21.333333l42.666667 0c12.8 0 21.333333 8.533333 21.333333 21.333333C384 418.133333 375.466667 426.666667 362.666667 426.666667z"  horiz-adv-x="1024" />

    
    <glyph glyph-name="wodeqianbao" unicode="&#58953;" d="M1004.84788-20.74813c0-15.321696-2.553616-28.089776-7.660848-40.857855-5.107232-12.76808-12.76808-22.982544-20.428928-33.197007-10.214464-10.214464-20.428928-17.875312-33.197007-22.982544-12.76808-5.107232-25.53616-7.660848-40.857855-7.660848L128.957606-125.446384c-15.321696 0-28.089776 2.553616-40.857855 7.660848-12.76808 5.107232-25.53616 12.76808-35.750623 22.982544C42.134663-87.142145 34.473815-76.927681 26.812968-64.159601c-5.107232 12.76808-7.660848 25.53616-7.660848 40.857855L19.15212 558.922693c0 30.643392 10.214464 53.625935 30.643392 74.054863 20.428928 20.428928 45.965087 30.643392 74.054863 30.643392l773.745636 0c30.643392 0 53.625935-10.214464 74.054863-30.643392 20.428928-20.428928 30.643392-45.965087 30.643392-74.054863l0-158.32419L741.825436 400.598504c-30.643392 0-53.625935-10.214464-74.054863-30.643392-20.428928-20.428928-30.643392-45.965087-30.643392-74.054863 0-20.428928 5.107232-38.304239 12.76808-53.625935 5.107232-12.76808 15.321696-25.53616 30.643392-35.750623 15.321696-10.214464 35.750623-15.321696 61.286783-15.321696l263.022444 0L1004.84788-20.74813 1004.84788-20.74813 1004.84788-20.74813zM846.523691 719.800499 317.925187 719.800499c40.857855 22.982544 81.715711 43.411471 117.466334 63.840399 33.197007 17.875312 63.840399 33.197007 97.037406 51.072319 30.643392 17.875312 56.179551 30.643392 74.054863 40.857855 28.089776 15.321696 51.072319 20.428928 71.501247 20.428928 20.428928 0 38.304239-5.107232 53.625935-10.214464 17.875312-7.660848 30.643392-20.428928 43.411471-33.197007L846.523691 719.800499 846.523691 719.800499zM688.199501 295.900249c0 15.321696 5.107232 28.089776 15.321696 38.304239 10.214464 10.214464 22.982544 15.321696 38.304239 15.321696 15.321696 0 28.089776-5.107232 38.304239-15.321696 10.214464-10.214464 15.321696-22.982544 15.321696-38.304239 0-15.321696-5.107232-28.089776-15.321696-38.304239-10.214464-10.214464-22.982544-15.321696-38.304239-15.321696-15.321696 0-28.089776 5.107232-38.304239 15.321696C693.306733 267.810474 688.199501 280.578554 688.199501 295.900249L688.199501 295.900249 688.199501 295.900249zM688.199501 295.900249"  horiz-adv-x="1024" />

    
    <glyph glyph-name="shijian" unicode="&#58936;" d="M568.920607 389.100468c-1.114225 12.592068-6.305754 24.007498-14.253684 32.919248L554.666922 569.158748c0 23.563445-19.102454 42.666922-42.666922 42.666922-23.564468 0-42.666922-19.102454-42.666922-42.666922l0-147.138009c-9.008951-10.102712-14.492081-23.419179-14.492081-38.020739 0-31.051975 24.765662-56.301593 55.620167-57.120124L637.204463 200.136576c16.66221-16.66221 43.677808-16.66221 60.340018 0 16.66221 16.66221 16.66221 43.676784 0 60.340018L568.920607 389.100468zM512 896C229.230473 896 0 666.769527 0 384s229.230473-512 512-512 512 229.230473 512 512S794.769527 896 512 896zM113.959901 395.915757l0-23.830491c-0.116641 3.958618-0.182123 7.92849-0.182123 11.915757S113.84326 391.957139 113.959901 395.915757zM508.059799-14.197666l7.880402 0c-1.312718-0.012278-2.624413-0.024556-3.940201-0.024556S509.372517-14.209944 508.059799-14.197666zM554.666922-11.955916 554.666922 101.018679l-85.332822 0 0-112.974595C283.483694 7.841266 135.841266 155.483694 116.044084 341.333078l113.131139 0 0 85.332822-113.131139 0c19.797182 185.849383 167.43961 333.491812 353.288994 353.288994l0-110.54049 85.332822 0L554.665899 779.955916c185.849383-19.797182 333.491812-167.43961 353.288994-353.288994L797.572993 426.666922l0-85.332822 110.382923 0C888.158734 155.483694 740.516306 7.841266 554.666922-11.955916z"  horiz-adv-x="1025" />

    
    <glyph glyph-name="shijian01" unicode="&#58917;" d="M511.705799 790.099065c-224.283136 0-406.100088-181.816952-406.100088-406.100088 0-224.282113 181.816952-406.100088 406.100088-406.100088 224.282113 0 406.100088 181.817975 406.100088 406.100088C917.804864 608.282113 735.987912 790.099065 511.705799 790.099065zM185.777659 355.223606c-16.018835 0-29.006637 12.987802-29.006637 29.007661 0 16.020882 12.987802 29.008684 29.006637 29.008684 16.020882 0 29.007661-12.987802 29.007661-29.008684C214.786343 368.211409 201.798541 355.223606 185.777659 355.223606zM511.704776 738.933755c16.020882 0 29.008684-12.987802 29.008684-29.008684 0-16.019859-12.986779-29.007661-29.008684-29.007661-16.018835 0-29.006637 12.987802-29.006637 29.007661C482.698139 725.946976 495.685941 738.933755 511.704776 738.933755zM511.704776 26.326854c-16.018835 0-29.006637 12.987802-29.006637 29.007661 0 16.020882 12.987802 29.008684 29.006637 29.008684 16.020882 0 29.008684-12.986779 29.008684-29.008684C540.712437 39.314657 527.725658 26.326854 511.704776 26.326854zM750.079862 558.688601 593.600995 412.442796c12.411681-31.403221 5.92392-68.547189-19.47454-93.946672-34.121122-34.121122-89.443102-34.121122-123.564223 0-25.495674 25.494651-31.937386 62.824861-19.333324 94.304829l-107.706047 97.472985c-13.419637 13.419637-13.418614 35.176151-0.001023 48.593741 13.419637 13.419637 35.176151 13.419637 48.594765 0l107.707071-97.472985c20.947078 8.385994 44.482097 8.341992 65.398476-0.13917l156.260903 146.028864c13.418614 13.418614 35.177174 13.418614 48.595788 0C763.498476 593.864752 763.498476 572.108239 750.079862 558.688601zM837.631894 354.992339c-16.018835 0-29.006637 12.986779-29.006637 29.006637 0 16.020882 12.986779 29.008684 29.006637 29.008684 16.020882 0 29.008684-12.987802 29.008684-29.008684C866.639554 367.980141 853.652775 354.992339 837.631894 354.992339z"  horiz-adv-x="1024" />

    
    <glyph glyph-name="jiaoyu" unicode="&#58995;" d="M406.2 257.5c0-15 49.1-27.1 109.6-27.1 60.5 0 109.6 12.1 109.6 27.1 0 15-49.1 27.1-109.6 27.1C455.3 284.6 406.2 272.5 406.2 257.5zM512 880c-273.5 0-496-222.5-496-496s222.5-496 496-496 496 222.5 496 496S785.5 880 512 880zM653.6 245.7c0 0-50.3-35.6-142.8-35.6-92.5 0-126.2 35.6-126.2 35.6L384.6 356.3c0 0 45.7 45.7 133.1 45.7 87.3 0 136-45.7 136-45.7L653.7 245.7zM670.8 370.7c0 0-63 63.5-149.8 63.5-84.8 0-168.7-63.5-168.7-63.5l-47.1 19.4 0-57c7.4-2.5 12.8-9.3 12.8-17.4 0-8.3-5.5-15-13.1-17.5l13.9-61.4-41.1 0 14 61.7c-6.7 2.8-11.5 9.5-11.5 17.2 0 7.6 4.6 14 11.1 16.9L291.3 395.8 223 424.1l301.4 133.8L801 422.4 670.8 370.7z"  horiz-adv-x="1024" />

    
    <glyph glyph-name="youxiang" unicode="&#58888;" d="M512 832.208115c-247.538793 0-448.208115-200.669322-448.208115-448.208115s200.669322-448.208115 448.208115-448.208115 448.208115 200.669322 448.208115 448.208115S759.538793 832.208115 512 832.208115zM774.58958 572.220802 512.332575 351.636918l-262.240633 220.583884L774.58958 572.220802zM248.078075 553.385828l175.202301-148.376329L248.078075 195.984882 248.078075 553.385828zM268.360004 195.779198l167.104879 197.293435 76.81141-63.081711 76.95058 65.046459 167.096692-199.258183L268.360004 195.779198zM775.921925 195.984882 600.727811 405.0095l175.194114 148.376329L775.921925 195.984882z"  horiz-adv-x="1024" />

    
    <glyph glyph-name="shoucang2" unicode="&#58915;" d="M954.51882 494.537999c-9.863313 27.98003-34.707468 48.117776-64.848832 52.553769l-212.583269 31.15028-92.324204 188.809987c-13.346951 27.335467-42.1824 45.001889-73.466989 45.001889-31.210839 0-60.005117-17.666422-73.393639-45.001889l-92.35958-188.829574-212.56588-31.189853c-30.158952-4.337459-55.025093-24.455819-64.888805-52.590743-9.845725-28.40674-2.510698-59.266617 19.124034-80.531799l156.024415-153.515916-36.188864-212.723374c-5.078557-29.647699 8.114898-60.065076 33.700151-77.517243 25.022035-16.826592 58.564693-18.679335 85.511223-4.510942l185.076118 98.241192 185.186044-98.25918c11.987872-6.32771 25.434755-9.67544 38.916615-9.67544 16.615735 0 32.706825 4.904675 46.617194 14.264329 25.469732 17.376219 38.640602 47.765415 33.563044 77.423307l-36.167279 212.739163 156.040804 153.516116C957.088078 435.194834 964.422106 466.052712 954.51882 494.537999zM908.155455 441.654454l-170.519987-167.77325 39.575967-232.781574c2.570257-14.947865-4.01128-29.771615-17.026456-38.659589-13.327964-8.949932-31.307773-9.91128-45.487959-2.438347l-203.384705 107.924627-203.2446-107.880657c-14.340677-7.552879-32.337475-6.537568-45.491557 2.332419-13.151483 8.96792-19.729024 23.817652-17.159366 38.755724l39.593556 232.747597-170.500001 167.77325c-10.819065 10.623797-14.51356 25.976388-9.669844 39.965304 5.039583 14.32129 17.940237 24.632299 33.758112 26.907157l232.917482 34.18822 101.369072 207.253882c6.889729 14.08485 21.986493 23.192675 38.449331 23.192675 16.514803 0 31.618363-9.088238 38.504894-23.173289l101.349085-207.255881 232.857523-34.107275c15.802286-2.336416 28.7605-12.686798 33.782096-26.927143C922.669414 467.630642 918.971921 452.298238 908.155455 441.654454zM508.725268 500.74559c-39.847383 0-71.951017-12.160155-95.377134-36.112915-39.106886-39.980893-38.272052-98.060715-38.213491-100.534038 0.234241-10.583824 8.891372-18.992123 19.436822-18.992123 0.11792 0 0.253228 0 0.371148 0 10.720132 0.199864 19.242354 9.071849 19.087059 19.787584 0 0.454692-0.349363 44.637136 27.317878 72.7135 15.817676 16.071504 38.503295 24.204389 67.35973 24.204389 10.741717 0 19.456808 8.715691 19.456808 19.457808C528.164089 492.010113 519.466985 500.74559 508.725268 500.74559z"  horiz-adv-x="1024" />

    
    <glyph glyph-name="jia" unicode="&#58928;" d="M-4.0e-06 896l0-1024 1024 0L1023.999996 896-4.0e-06 896zM983.067748-87.067752 40.932244-87.067752 40.932244 855.067752l942.135504 0L983.067748-87.067752zM287.83147 363.533876l203.702402 0 0-203.702402c0-11.30344 9.162684-20.466124 20.466124-20.466124s20.466124 9.162684 20.466124 20.466124L532.46612 363.533876l203.702402 0c11.30344 0 20.466124 9.162684 20.466124 20.466124s-9.162684 20.466124-20.466124 20.466124L532.46612 404.466124 532.46612 608.168526c0 11.30344-9.162684 20.466124-20.466124 20.466124s-20.466124-9.162684-20.466124-20.466124l0-203.702402L287.83147 404.466124c-11.30344 0-20.466124-9.162684-20.466124-20.466124S276.52803 363.533876 287.83147 363.533876z"  horiz-adv-x="1024" />

    
    <glyph glyph-name="youxiang1" unicode="&#58894;" d="M514.392043 404.831841M505.27849 879.535931c-278.223923 0-503.768469-225.544546-503.768469-503.767461 0-278.223923 225.544546-503.768469 503.768469-503.768469 278.222915 0 503.768469 225.544546 503.768469 503.768469C1009.04696 653.991385 783.501406 879.535931 505.27849 879.535931zM299.065844 569.98562l412.428316 0c18.786559 0 35.555052-8.185162 47.331806-21.038486L505.491184 395.045936 256.567518 553.636465C267.930982 563.684457 282.723746 569.98562 299.065844 569.98562zM234.651042 505.571826c0 7.331365 1.492885 14.264559 3.754892 20.832849l179.872957-114.610406L234.651042 252.68259 234.651042 505.571826zM711.494161 181.551319 299.065844 181.551319c-24.932486 0-46.352005 14.343185-57.033036 35.111521 1.152172 0.563486 2.346682 1.084635 3.356723 1.980769l201.705767 174.774368 49.394224-31.463479c0.128019-0.082658 0.284263-0.09677 0.412282-0.189509 0.896134-0.519133 1.821501-0.896134 2.788197-1.243903 0.454619-0.161284 0.866901-0.409258 1.322529-0.512077 1.294304-0.355833 2.60272-0.544333 3.940369-0.575582 0.127011 0 0.212693-0.036289 0.313496-0.036289l0.014112 0 0.014112 0c0.114915 0 0.227814 0.042337 0.356841 0.042337 1.279183 0.040321 2.544255 0.185477 3.783117 0.519133 0.455627 0.109875 0.866901 0.348777 1.308416 0.509053 0.910246 0.319544 1.820493 0.657232 2.660178 1.137052 0.128019 0.078626 0.256038 0.092738 0.384057 0.174388l58.612611 35.602429L771.938353 224.463943C763.063702 199.521377 739.48197 181.551319 711.494161 181.551319zM775.907955 264.365598 601.792835 415.239697l172.36418 104.703538c1.067498-4.632882 1.749931-9.401848 1.749931-14.367378L775.906947 264.365598z"  horiz-adv-x="1025" />

    
    <glyph glyph-name="mima" unicode="&#59225;" d="M730.741933 511.948067 313.146023 511.948067l0 85.126796c0 107.165742 84.511789 191.125969 192.618972 191.795211 105.652272-0.61603 185.202049-82.782402 185.202049-191.795211l0-42.620703c0-11.744485 8.873088-21.308305 19.887956-21.308305 11.013845 0 19.887956 9.510608 19.887956 21.308305l0 42.620703c0 132.788306-95.994308 233.07436-223.674269 234.358609l-2.559289 0C374.74087 830.149223 273.370111 727.680457 273.370111 597.075887l0-87.364767c-67.287499-10.516518-119.328759-72.098062-119.328759-146.994865l0-276.976242c0-82.331123 62.432934-149.174508 139.216715-149.174508l437.483866 0c76.841086 0 139.216715 66.843384 139.216715 149.174508L869.958648 362.716254C869.958648 444.994166 807.474548 511.948067 730.741933 511.948067L730.741933 511.948067zM830.182736 85.797317c0-58.788941-44.578288-106.553805-99.441826-106.553805l-437.483866 0c-54.859445 0-99.387591 47.764863-99.387591 106.553805L193.869453 362.77356c0 58.785871 44.579311 106.496499 99.387591 106.496499l437.483866 0c54.91675 0 99.441826-47.764863 99.441826-106.496499L830.182736 85.797317 830.182736 85.797317zM511.974417 384.085958c-65.768913 0-119.328759-57.332776-119.328759-127.862109 0-63.317071 43.325761-115.66737 99.860359-125.682467-0.053212-0.780783-0.418532-1.342578-0.418532-2.122337l0-63.933101c0-11.80179 8.873088-21.36561 19.887956-21.36561 11.013845 0 19.887956 9.56382 19.887956 21.36561l0 63.933101c0 0.780783-0.36532 1.342578-0.418532 2.122337 56.534598 10.015098 99.860359 62.365396 99.860359 125.682467C631.3042 326.753181 577.797565 384.085958 511.974417 384.085958L511.974417 384.085958zM511.974417 170.982442c-43.848671 0-79.55387 38.314631-79.55387 85.184101 0 47.041386 35.759435 85.188194 79.55387 85.188194s79.446423-38.257326 79.446423-85.188194C591.525218 209.239767 555.823088 170.982442 511.974417 170.982442L511.974417 170.982442z"  horiz-adv-x="1024" />

    
    <glyph glyph-name="xiaosanjiao" unicode="&#58899;" d="M831.547315 512.185474 511.716033 192.355215 191.913403 512.156822Z"  horiz-adv-x="1024" />

    
    <glyph glyph-name="comiisshequon" unicode="&#59022;" d="M822.825508 431.224926l0-18.80525c0-140.615263-101.058282-256.337603-231.065737-271.828101 25.999372-21.391497 58.917854-34.295548 94.880471-34.295548l30.332435 0c69.250848 0.274814 55.510164-99.494343 90.918157-77.55222 11.064498 6.826372 25.630622 36.882993 45.458979 62.061722 20.19131 25.718563 45.452983 46.559433 45.452983 46.559433s-0.181877 0-0.36875-0.08794c36.882793 28.306808 60.949476 73.302101 60.949476 124.200592l0 15.490497C959.290585 357.371198 899.447359 423.573113 822.825508 431.224926zM533.484482 742.698946l-208.660528 0c-144.027949 0-260.851942-122.540518-260.851942-273.755794l0-27.391429c0-89.717971 41.308393-169.196885 104.932656-219.081862-0.186873 0-0.555224 0.098933-0.555224 0.098933s43.520893-36.793854 78.283724-82.164093c34.113871-44.534606 59.194266-97.457724 78.279127-109.535535 60.861136-38.73174 37.25674 137.289518 156.47511 136.926764l52.191014 0c144.022952 0 260.847545 122.537719 260.847545 273.755794l0 27.391429c-0.08894 151.215076-116.824393 273.758792-260.941482 273.758792L533.484482 742.698946zM429.196389 293.933409c-94.694597 0-171.778534 61.962789-171.778534 138.12695 0 10.326998 8.300772 18.623373 18.62837 18.623373 10.326998 0 18.622774-8.296375 18.622774-18.623373 0-55.608098 60.304913-100.880403 134.52739-100.880403 74.137535 0 134.532387 45.272106 134.532387 100.880403 0 10.326998 8.301372 18.623373 18.62837 18.623373s18.622374-8.296375 18.622374-18.623373c0-76.164161-77.083537-138.12695-171.778134-138.12695L429.196389 293.933409z"  horiz-adv-x="1024" />

    
    <glyph glyph-name="baoqianninmeiyouquanxianchakan" unicode="&#58908;" d="M512.1-124.9c-136.8 0-265.4 52.9-362 149C53.3 120.2 0 248.1 0 384s53.3 263.8 150 359.9c96.8 96.2 225.4 149 362.2 149s265.5-52.9 362.2-149c199.7-198.5 199.7-521.3 0-719.7C777.6-71.8 648.9-124.9 512.1-124.9L512.1-124.9 512.1-124.9 512.1-124.9 512.1-124.9zM512.1 826.7c-119 0-230.8-46-314.9-129.6S66.7 502.4 66.7 384.1s46.3-229.3 130.4-313c84.1-83.5 196-129.6 314.9-129.6 119 0 231 46.1 315.1 129.7 173.7 172.6 173.7 453.3 0 625.9C743.1 780.6 631.1 826.7 512.1 826.7L512.1 826.7 512.1 826.7 512.1 826.7 512.1 826.7zM330.2 86.2 330.2 86.2c-43.1 0-41.5 47.6-41.5 47.6S343.6 245 512.1 245s247-111.2 247-111.2c0-47.8-45.3-47.6-45.3-47.6s-79.9 95.3-201.9 95.3C390 181.6 330.2 86.2 330.2 86.2L330.2 86.2 330.2 86.2zM363.3 547.6c-34.5 0-62.7-28-62.7-62.4s28.1-62.4 62.7-62.4 62.7 28 62.7 62.4C426 519.8 397.9 547.6 363.3 547.6L363.3 547.6 363.3 547.6 363.3 547.6 363.3 547.6zM684.6 547.6c-34.5 0-62.7-28-62.7-62.4s28.1-62.4 62.7-62.4 62.7 28 62.7 62.4C747.3 519.8 719.3 547.6 684.6 547.6L684.6 547.6 684.6 547.6 684.6 547.6 684.6 547.6z"  horiz-adv-x="1025" />

    
    <glyph glyph-name="icon-copy" unicode="&#58881;" d="M511.37 832.196c214.906 0 337.083-179.822 354.43-380.561 30.108-24.246 47.903-61.188 47.903-99.904 0-32.493-11.633-62.095-31.182-84.36-16.269-18.684-38.028-32.475-62.194-38.945-30.332-53.849-72.946-99.471-124.361-131.511-4.407-2.461-8.573-5.329-12.756-7.795v-132.192c0-10.457-8.353-18.918-18.905-18.918-3.508 0-6.591 1.347-9.875 2.899l-64.377 39.831c-7.468-9.777-19.352-16.453-32.082-16.453h-93.604c-12.761 0-24.842 6.676-32.090 16.453l-64.597-39.831c-2.859-1.552-6.165-2.899-9.678-2.899-10.099 0-18.671 8.461-18.671 18.918l-0.001 132.19c-4.188 2.465-8.573 5.128-12.962 7.795-51.209 32.041-94.052 77.662-124.156 131.511-24.395 6.68-46.355 20.26-62.172 38.945-19.781 22.265-31.656 51.867-31.656 84.36 0 38.717 18.023 75.657 47.903 99.904 17.572 200.741 139.753 380.563 355.084 380.563v0zM645.633 70.662v0c-15.168-6.474-31.41-11.804-47.903-16.474v-33.617l47.903-30.028v80.119zM424.356 20.571v0 33.617c-16.242 4.671-32.512 10-47.903 16.474v-80.119l47.903 30.028zM560.602 46.849v0c-16.269-2.461-32.739-3.351-49.231-3.351-16.698 0-33.392 0.89-49.661 3.351 0-14.041 0-27.827 0-42.068 0-0.658 0.447-1.343 0.904-1.776 0.425-0.452 0.873-0.89 1.754-0.89h93.604c0.873 0 1.302 0.439 1.754 0.89 0.425 0.434 0.877 1.118 0.877 1.776-0 14.242-0 28.027-0 42.068v0zM407.009 371.533v0c16.922 0 30.985-14.036 30.985-31.379 0-17.594-14.063-31.15-30.985-31.15-16.917 0-30.985 13.558-30.985 31.15-0 17.343 14.067 31.379 30.985 31.379v0zM615.525 371.533v0c16.721 0 30.779-14.036 30.779-31.379 0-17.594-14.058-31.15-30.779-31.15-17.347 0-31.182 13.558-31.182 31.15 0 17.343 13.835 31.379 31.182 31.379v0zM396.23 201.054v0c-8.349 5.562-10.976 16.909-5.714 25.817 5.288 8.685 16.922 11.58 25.491 5.79 14.515-9.115 29.88-16.023 45.702-20.689 15.844-4.9 32.538-7.361 49.661-7.361 16.917 0 33.415 2.461 49.231 7.361 15.817 4.666 31.41 11.576 45.697 20.689 8.796 5.79 20.229 2.895 25.491-5.79 5.718-8.909 2.859-20.255-5.709-25.817-17.151-10.684-35.599-19.576-55.379-25.132-18.895-5.79-39.102-9.137-59.33-9.137-20.632 0-40.865 3.347-59.764 9.137-19.776 5.557-38.448 14.447-55.375 25.132v0zM805.816 428.502v0c-122.16-24.927-202.578-17.137-263.237 12.9-53.169 25.361-90.522 66.772-127.445 117.063-9.678-42.73-32.090-73.219-64.149-94.593-35.599-22.905-81.747-34.479-134.938-36.94-1.754-8.224-6.573-15.127-14.269-19.804-19.548-11.576-31.433-32.699-31.433-55.398 0-16.475 6.165-31.607 16.045-42.954 9.897-11.351 23.965-19.597 39.782-21.374v-0.228c9.651-1.092 18.899-7.338 23.518-16.681 25.262-49.84 63.044-91.242 109.193-120.393 44.171-27.822 96.235-43.845 152.487-43.845 55.822 0 107.69 16.023 152.062 43.845 45.267 28.255 83.072 69.438 107.886 117.725 4.188 10.457 13.409 18.256 24.842 19.576 15.821 1.776 29.88 10.022 39.984 21.374 9.673 11.347 15.821 26.479 15.821 42.954 0 22.699-11.857 43.822-31.639 55.398-7.248 4.676-12.734 12.467-14.51 21.376v0zM220.007 464.757v0c44.167 3.355 82.396 12.264 110.75 30.721 32.51 21.804 52.288 57.631 52.288 113.051v0c0 5.79 2.859 11.351 7.919 15.133 8.349 6.014 19.781 4.238 25.924-4.443 44.82-62.988 83.501-116.402 141.507-144.202 54.274-26.712 128.12-32.954 243.684-9.141-20.211 162.024-116.665 303.562-290.71 303.562-174.453 0-271.587-142.881-291.363-304.68v0z"  horiz-adv-x="1024" />

    
    <glyph glyph-name="jiantou" unicode="&#58955;" d="M512 659.844459c-217.557152 0-393.921766-176.364614-393.921766-393.921766 0-217.558078 176.363688-393.921766 393.921766-393.921766s393.921766 176.364614 393.921766 393.921766C905.921766 483.479844 729.558078 659.844459 512 659.844459zM494.568932 52.793023 494.568932 168.645935l-197.592255 0L296.976676 363.198523l197.592255 0L494.568932 479.053289l269.513131-213.12967L494.568932 52.793023z"  horiz-adv-x="1024" />

    
    <glyph glyph-name="weixinzhifu" unicode="&#59763;" d="M299.199506 579.419653c-16.890953 11.287851-44.967698 5.643926-56.643378-11.532796-26.581563-38.282758 19.631268-83.194323 59.128542-57.674185C326.031116 525.919727 324.541038 562.482772 299.199506 579.419653zM466.649577 505.308682c46.707823-17.66661 78.009668 46.381231 36.272174 74.11097-10.680594 7.113592-30.061814 7.60348-42.487636 0.979777C428.887325 563.957541 432.862568 518.071303 466.649577 505.308682zM590.377084 368.134751c-27.57665 17.66661-61.863754-9.818185-49.443035-39.512583 10.935744-25.765082 51.428104-23.800425 60.868667 2.944435C606.272951 344.079176 600.807631 361.261001 590.377084 368.134751zM705.898956 356.596852c-15.155931-28.219629 15.650922-57.669082 44.967698-42.941804 19.12607 9.813082 21.861282 36.073156 5.46532 51.535268C741.431194 379.172555 715.834511 374.758454 705.898956 356.596852zM512.005103 896C229.232177 896 0 666.772926 0 384c0-282.772926 229.232177-512 512-512S1024.005103 101.227074 1024.005103 384C1024.005103 666.772926 794.772926 896 512.005103 896zM378.699251 209.599633c-22.851265 0-57.143472 4.664148-83.96998 11.287851l-25.59158 6.138917-48.197901-25.525241-48.197901-25.520138 13.415805 39.50748c15.650922 46.136286 15.650922 45.401453 5.215273 52.025156-190.30644 122.206811-110.556646 389.20124 128.692733 431.408211 153.289227 26.994907 309.55861-55.704424 346.575823-183.560264l4.720281-16.196944-22.856368 0c-168.690102 0-298.377922-135.214376-260.860614-271.653474l4.720281-17.916658L378.699251 209.59453zM814.965525 122.486201c-16.646009-11.77774-16.395961-9.078249-3.975242-46.871119 5.46532-16.93688 9.69061-31.659055 9.190516-32.883777-0.494992-0.98488-18.381031 7.363639-39.747321 18.896435l-38.757338 20.616148-18.381031-4.909093c-155.774391-42.206971-318.009189 52.025156-324.219549 188.714301-4.720281 102.085655 77.514676 190.9188 196.021807 212.269782C837.821893 521.750571 1002.291808 255.246031 814.965525 122.486201z"  horiz-adv-x="1025" />

    
    <glyph glyph-name="pay" unicode="&#59044;" d="M925.789 719.039h-827.578c-20.039 0-36.211-17.842-36.211-39.903v-87.715h900v87.715c0 22.060-16.172 39.903-36.211 39.903zM444.94 335.836h68.818v72.685h-68.818v-72.685zM175.555 170.074h339.434v72.685h-339.434v-72.685zM400.203 408.521h-224.648v-72.685h224.737l-0.088 72.685zM962 527.086v-439.893c0-21.094-16.172-38.232-36.211-38.232h-827.578c-20.039 0-36.211 17.138-36.211 38.232v439.893h900z"  horiz-adv-x="1024" />

    
    <glyph glyph-name="yiguoqi1" unicode="&#58893;" d="M250.578824 759.868235C43.369412 615.303529-8.432941 329.788235 136.131765 122.578824c144.564706-207.209412 428.875294-259.011765 637.289412-114.447059 207.209412 144.564706 259.011765 428.875294 114.447059 637.289412C743.303529 852.630588 457.788235 903.228235 250.578824 759.868235L250.578824 759.868235 250.578824 759.868235zM746.917647 41.863529c-189.138824-131.312941-448.150588-84.329412-579.463529 104.809412C36.141176 335.811765 81.92 594.823529 271.058824 726.136471c189.138824 131.312941 448.150588 84.329412 579.463529-104.809412C981.835294 433.392941 934.851765 173.176471 746.917647 41.863529L746.917647 41.863529 746.917647 41.863529zM746.917647 41.863529M250.578824 759.868235C43.369412 615.303529-8.432941 329.788235 136.131765 122.578824c144.564706-207.209412 428.875294-259.011765 637.289412-114.447059 207.209412 144.564706 259.011765 428.875294 114.447059 637.289412C743.303529 852.630588 457.788235 903.228235 250.578824 759.868235L250.578824 759.868235 250.578824 759.868235zM746.917647 41.863529c-189.138824-131.312941-448.150588-84.329412-579.463529 104.809412C36.141176 335.811765 81.92 594.823529 271.058824 726.136471c189.138824 131.312941 448.150588 84.329412 579.463529-104.809412C981.835294 433.392941 934.851765 173.176471 746.917647 41.863529L746.917647 41.863529 746.917647 41.863529zM746.917647 41.863529M297.562353 692.404706c-169.863529-118.061176-212.028235-351.774118-93.967059-522.842353 118.061176-169.863529 351.774118-212.028235 522.842353-93.967059 169.863529 118.061176 212.028235 351.774118 93.967059 522.842353C701.138824 768.301176 467.425882 810.465882 297.562353 692.404706L297.562353 692.404706 297.562353 692.404706zM716.8 87.642353c-162.635294-113.242353-387.915294-73.487059-501.157647 90.352941C102.4 341.835294 143.36 565.910588 305.995294 679.152941 469.835294 792.395294 693.910588 752.64 807.152941 588.8 920.395294 426.164706 880.64 202.089412 716.8 87.642353L716.8 87.642353 716.8 87.642353zM716.8 87.642353M297.562353 692.404706c-169.863529-118.061176-212.028235-351.774118-93.967059-522.842353 118.061176-169.863529 351.774118-212.028235 522.842353-93.967059 169.863529 118.061176 212.028235 351.774118 93.967059 522.842353C701.138824 768.301176 467.425882 810.465882 297.562353 692.404706L297.562353 692.404706 297.562353 692.404706zM716.8 87.642353c-162.635294-113.242353-387.915294-73.487059-501.157647 90.352941C102.4 341.835294 143.36 565.910588 305.995294 679.152941 469.835294 792.395294 693.910588 752.64 807.152941 588.8 920.395294 426.164706 880.64 202.089412 716.8 87.642353L716.8 87.642353 716.8 87.642353zM716.8 87.642353M648.131765 169.562353l25.298824-12.047059 25.298824 10.842353-3.614118-27.708235 19.275294-20.48L686.682353 115.350588l-14.456471-24.094118-13.251765 25.298824-27.708235 6.023529 19.275294 20.48L648.131765 169.562353 648.131765 169.562353zM648.131765 169.562353M312.018824 653.854118l25.298824-12.047059 25.298824 10.842353-3.614118-27.708235 19.275294-20.48L349.364706 599.642353l-14.456471-24.094118-13.251765 25.298824L295.152941 606.870588l19.275294 20.48L312.018824 653.854118 312.018824 653.854118zM312.018824 653.854118M739.689412 270.757647l25.298824-12.047059 25.298824 10.842353-3.614118-27.708235 19.275294-20.48-27.708235-4.818824-14.456471-24.094118-13.251765 25.298824L722.823529 222.569412l19.275294 20.48L739.689412 270.757647 739.689412 270.757647zM739.689412 270.757647M434.898824 710.475294l25.298824-12.047059 25.298824 10.842353-3.614118-27.708235 19.275294-20.48-27.708235-4.818824-14.456471-24.094118-13.251765 25.298824-27.708235 6.023529 19.275294 20.48L434.898824 710.475294 434.898824 710.475294zM434.898824 710.475294M784.263529 392.432941l25.298824-12.047059 25.298824 10.842353L831.247059 363.52l19.275294-20.48-27.708235-4.818824-14.456471-24.094118L795.105882 338.221176l-27.708235 6.023529 19.275294 20.48L784.263529 392.432941 784.263529 392.432941zM784.263529 392.432941M558.983529 716.498824l25.298824-12.047059 25.298824 10.842353-3.614118-27.708235 19.275294-20.48-27.708235-4.818824-14.456471-24.094118-13.251765 25.298824L542.117647 668.310588l19.275294 20.48L558.983529 716.498824 558.983529 716.498824zM558.983529 716.498824M531.275294 126.192941l25.298824-12.047059 25.298824 10.842353L578.258824 97.28l19.275294-20.48-27.708235-4.818824-14.456471-24.094118L542.117647 71.981176l-27.708235 6.023529 19.275294 20.48L531.275294 126.192941 531.275294 126.192941zM531.275294 126.192941M225.28 565.910588l25.298824-12.047059 25.298824 10.842353-3.614118-27.708235 19.275294-20.48-27.708235-4.818824-14.456471-24.094118-13.251765 25.298824-27.708235 6.023529 19.275294 20.48L225.28 565.910588 225.28 565.910588zM225.28 565.910588M416.828235 132.216471l25.298824-12.047059 25.298824 10.842353-3.614118-27.708235 19.275294-20.48-27.708235-4.818824-14.456471-24.094118-13.251765 25.298824-27.708235 6.023529 19.275294 20.48L416.828235 132.216471 416.828235 132.216471zM416.828235 132.216471M191.548235 456.282353l25.298824-12.047059 25.298824 10.842353-3.614118-27.708235 19.275294-20.48L230.098824 402.070588l-14.456471-24.094118-13.251765 25.298824-27.708235 6.023529 19.275294 20.48L191.548235 456.282353 191.548235 456.282353zM191.548235 456.282353M413.214118 305.694118c12.047059 2.409412 21.684706 4.818824 28.912941 7.228235 6.023529-14.456471 10.842353-24.094118 13.251765-32.527059 2.409412-7.228235 2.409412-14.456471 0-21.684706-3.614118-7.228235-9.637647-13.251765-19.275294-20.48l-66.258824-46.983529c-21.684706-15.661176-40.96-12.047059-56.621176 10.842353l-45.778824 65.054118 22.889412 15.661176L301.176471 269.552941l73.487059 51.802353L351.774118 353.882353l-99.990588-71.077647-14.456471 20.48L360.207059 390.023529l51.802353-73.487059-96.376471-67.463529 19.275294-27.708235c7.228235-9.637647 15.661176-12.047059 25.298824-4.818824l56.621176 39.755294c4.818824 3.614118 8.432941 7.228235 9.637647 10.842353 2.409412 3.614118 2.409412 7.228235 0 12.047059C425.261176 282.804706 420.442353 291.237647 413.214118 305.694118zM398.757647 428.574118c14.456471-4.818824 27.708235-10.842353 38.550588-15.661176-1.204706-2.409412-4.818824-10.842353-12.047059-25.298824-13.251765 6.023529-25.298824 12.047059-37.345882 16.865882L398.757647 428.574118zM618.014118 393.637647c2.409412-10.842353 6.023529-19.275294 7.228235-25.298824l-87.943529-60.235294c-7.228235-4.818824-14.456471-8.432941-20.48-9.637647-7.228235-1.204706-13.251765-1.204706-19.275294 1.204706-2.409412-14.456471-4.818824-25.298824-4.818824-31.322353l-25.298824 18.070588 6.023529 22.889412-30.117647 42.164706L428.875294 341.835294l-14.456471 20.48 34.936471 24.094118 43.369412-61.44c13.251765-3.614118 26.503529-1.204706 39.755294 8.432941l24.094118 16.865882C572.235294 359.905882 592.715294 375.567059 618.014118 393.637647zM483.087059 486.4l21.684706 15.661176 18.070588-25.298824 21.684706 15.661176 13.251765-18.070588-21.684706-15.661176 36.141176-50.597647c6.023529-8.432941 8.432941-16.865882 8.432941-24.094118-1.204706-7.228235-4.818824-13.251765-12.047059-19.275294-7.228235-4.818824-16.865882-12.047059-28.912941-21.684706-6.023529 6.023529-13.251765 10.842353-20.48 18.070588 12.047059 7.228235 21.684706 13.251765 25.298824 16.865882 7.228235 4.818824 8.432941 12.047059 2.409412 20.48l-31.322353 44.574118-60.235294-42.164706-13.251765 18.070588 60.235294 42.164706L483.087059 486.4zM474.654118 412.912941c12.047059-2.409412 28.912941-7.228235 49.392941-13.251765-2.409412-8.432941-6.023529-16.865882-8.432941-26.503529-15.661176 4.818824-31.322353 10.842353-48.188235 15.661176L474.654118 412.912941zM637.289412 547.84l-8.432941-6.023529 45.778824-65.054118 8.432941 6.023529 13.251765-18.070588-22.889412-15.661176c9.637647-1.204706 19.275294-3.614118 28.912941-6.023529 0 15.661176-9.637647 36.141176-28.912941 63.849412l-49.392941 69.872941 56.621176 40.96 87.943529-124.084706c3.614118-4.818824 4.818824-9.637647 4.818824-14.456471 0-4.818824-2.409412-8.432941-7.228235-12.047059-3.614118-3.614118-10.842353-8.432941-20.48-15.661176-4.818824 4.818824-10.842353 9.637647-19.275294 16.865882 6.023529 3.614118 10.842353 6.023529 13.251765 8.432941 4.818824 3.614118 4.818824 7.228235 2.409412 12.047059l-13.251765 19.275294-20.48-14.456471c12.047059-19.275294 19.275294-38.550588 19.275294-59.030588-6.023529 0-13.251765 0-21.684706 0l-4.818824-15.661176c-12.047059 3.614118-24.094118 7.228235-36.141176 9.637647l6.023529 20.48-33.731765-24.094118 20.48-1.204706c-1.204706-14.456471-2.409412-28.912941-4.818824-40.96-8.432941 1.204706-16.865882 2.409412-22.889412 2.409412 2.409412 12.047059 3.614118 24.094118 4.818824 37.345882L614.4 408.094118 602.352941 426.164706l12.047059 8.432941-45.778824 65.054118-9.637647-7.228235L545.731765 510.494118l9.637647 7.228235-8.432941 12.047059 18.070588 13.251765 8.432941-12.047059 22.889412 16.865882-8.432941 12.047059 19.275294 13.251765 8.432941-12.047059 8.432941 6.023529L637.289412 547.84zM593.92 502.061176l22.889412 16.865882-7.228235 10.842353-22.889412-16.865882L593.92 502.061176zM611.990588 475.557647l22.889412 16.865882-7.228235 10.842353-22.889412-16.865882L611.990588 475.557647zM632.470588 447.849412l22.889412 16.865882-8.432941 10.842353-22.889412-16.865882L632.470588 447.849412zM675.84 585.185882 656.564706 570.729412l14.456471-20.48 19.275294 13.251765L675.84 585.185882zM697.524706 512.903529l19.275294 14.456471L703.548235 546.635294l-19.275294-13.251765L697.524706 512.903529z"  horiz-adv-x="1024" />

    
    <glyph glyph-name="integral" unicode="&#58919;" d="M509.092 395.076c258.849 0 454.035 83.602 454.035 194.469 0 110.855-195.186 194.455-454.036 194.455-258.848 0-454.048-83.602-454.048-194.457 0-110.868 195.201-194.468 454.049-194.468zM509.092 734.928c238.65 0 404.963-76.617 404.963-145.383 0-68.768-166.313-145.396-404.963-145.396-238.663 0-404.977 76.628-404.977 145.396 0.001 68.766 166.315 145.383 404.977 145.383zM509.083 189.081c258.143 0 452.807 83.079 452.807 193.229 0 29.087-14.057 56.157-38.8 80.437-0.159 0.164-0.285 0.343-0.448 0.502-0.185 0.18-0.306 0.371-0.489 0.548l-0.123-0.135c-3.98 3.648-9.183 6.003-15.007 6.003-12.359 0-22.375-10.015-22.375-22.373 0-6.542 2.915-12.292 7.389-16.385l-0.089-0.097c14.934-15.014 23.351-33.354 23.351-48.5 0-69.361-166.817-146.64-406.215-146.64-239.387 0-406.205 77.278-406.205 146.64 0 17.279 4.858 32.067 23.9 48.895 0.229 0.218 0.46 0.409 0.681 0.637 0.147 0.126 0.257 0.25 0.406 0.379l-0.091 0.087c3.658 3.982 6.020 9.195 6.020 15.029 0 12.358-10.017 22.373-22.375 22.373-6.178 0-11.77-2.505-15.815-6.551l-0.132 0.129c-25.061-24.409-39.18-51.687-39.18-80.977-0.001-110.15 194.661-193.229 452.791-193.229zM922.87 258.17c-0.18 0.177-0.302 0.368-0.485 0.543l-0.122-0.134c-3.98 3.648-9.183 6.005-15.009 6.005-12.355 0-22.373-10.016-22.373-22.374 0-6.541 2.914-12.293 7.389-16.384l-0.090-0.098c14.935-15.015 23.351-33.355 23.351-48.499 0-69.364-166.815-146.64-406.214-146.64-239.385 0-406.204 77.277-406.204 146.64 0 17.279 4.858 32.067 23.898 48.895 0.229 0.217 0.461 0.409 0.681 0.637 0.147 0.127 0.258 0.25 0.406 0.38l-0.091 0.086c3.658 3.983 6.020 9.196 6.020 15.029 0 12.359-10.017 22.374-22.373 22.374-6.179 0-11.771-2.505-15.817-6.551l-0.131 0.127c-25.063-24.407-39.179-51.689-39.179-80.977 0-110.151 194.661-193.229 452.791-193.229 258.143 0 452.805 83.079 452.805 193.229 0 29.084-14.053 56.156-38.794 80.432-0.164 0.17-0.292 0.348-0.458 0.509z"  horiz-adv-x="1024" />

    
    <glyph glyph-name="weibiaoti2" unicode="&#58914;" d="M356.096 475.392l62.4 0 0-187.2-62.4 0 0 187.2ZM262.528 475.392l62.464 0 0-187.2-62.464 0 0 187.2ZM574.528 475.392 449.728 475.392 449.728 288.192 574.528 288.192 574.528 194.56 761.728 381.76 574.528 568.96ZM983.808 583.36c-25.856 60.992-62.72 115.712-109.76 162.688-46.912 47.04-101.76 83.968-162.624 109.696C648.32 882.496 581.184 896 512.128 896S376 882.496 312.896 855.744C251.968 830.016 197.184 793.088 150.208 746.048 103.232 699.072 66.24 644.352 40.448 583.36 13.824 520.256 0.256 453.184 0.256 384.128s13.568-136.192 40.192-199.296c25.792-60.928 62.72-115.712 109.696-162.624 46.976-46.976 101.76-83.904 162.688-109.76 63.104-26.688 130.176-40.192 199.232-40.192s136.192 13.504 199.296 40.192c60.864 25.856 115.712 62.72 162.624 109.76 46.976 46.912 83.904 101.696 109.76 162.624C1010.496 247.936 1024 315.072 1024 384.128S1010.496 520.256 983.808 583.36zM512.128-56.768c-243.136 0-440.896 197.696-440.896 440.896 0 243.136 197.76 440.896 440.896 440.896 243.2 0 440.96-197.76 440.96-440.896C953.088 140.928 755.328-56.768 512.128-56.768z"  horiz-adv-x="1025" />

    
    <glyph glyph-name="yiguoqi2" unicode="&#58944;" d="M225.28 796.672C-2.048 638.976-57.344 327.68 99.328 101.376c157.696-226.304 468.992-282.624 695.296-125.952C1020.928 133.12 1077.248 444.416 920.576 670.72 762.88 898.048 451.584 954.368 225.28 796.672L225.28 796.672 225.28 796.672zM765.952 13.312c-205.824-143.36-489.472-92.16-632.832 113.664C-10.24 333.824 40.96 616.448 247.808 759.808 453.632 903.168 737.28 851.968 880.64 646.144 1024 439.296 972.8 156.672 765.952 13.312L765.952 13.312 765.952 13.312zM225.28 796.672C-2.048 638.976-57.344 327.68 99.328 101.376c157.696-226.304 468.992-282.624 695.296-125.952C1020.928 133.12 1077.248 444.416 920.576 670.72 762.88 898.048 451.584 954.368 225.28 796.672L225.28 796.672 225.28 796.672zM765.952 13.312c-205.824-143.36-489.472-92.16-632.832 113.664C-10.24 333.824 40.96 616.448 247.808 759.808 453.632 903.168 737.28 851.968 880.64 646.144 1024 439.296 972.8 156.672 765.952 13.312L765.952 13.312 765.952 13.312zM276.48 722.944C90.112 593.92 44.032 337.92 173.056 152.576c129.024-186.368 384-232.448 570.368-102.4 186.368 129.024 232.448 384 102.4 570.368C717.824 805.888 461.824 851.968 276.48 722.944L276.48 722.944 276.48 722.944zM734.208 63.488c-178.176-123.904-422.912-79.872-546.816 98.304-123.904 178.176-79.872 422.912 98.304 546.816 178.176 123.904 422.912 79.872 546.816-98.304C956.416 432.128 912.384 187.392 734.208 63.488L734.208 63.488 734.208 63.488zM276.48 722.944C90.112 593.92 44.032 337.92 173.056 152.576c129.024-186.368 384-232.448 570.368-102.4 186.368 129.024 232.448 384 102.4 570.368C717.824 805.888 461.824 851.968 276.48 722.944L276.48 722.944 276.48 722.944zM734.208 63.488c-178.176-123.904-422.912-79.872-546.816 98.304-123.904 178.176-79.872 422.912 98.304 546.816 178.176 123.904 422.912 79.872 546.816-98.304C956.416 432.128 912.384 187.392 734.208 63.488L734.208 63.488 734.208 63.488zM659.456 152.576l27.648-13.312 27.648 12.288-4.096-30.72 20.48-22.528-29.696-5.12L685.056 66.56l-14.336 27.648-29.696 6.144 21.504 21.504L659.456 152.576 659.456 152.576zM291.84 681.984l27.648-13.312 27.648 12.288-4.096-30.72 20.48-22.528-29.696-5.12L317.44 595.968l-14.336 27.648L273.408 629.76l21.504 21.504L291.84 681.984 291.84 681.984zM758.784 263.168l27.648-13.312 27.648 12.288-4.096-30.72 20.48-22.528-29.696-5.12-15.36-26.624-14.336 27.648-29.696 6.144 21.504 21.504L758.784 263.168 758.784 263.168zM424.96 743.424l27.648-13.312 27.648 12.288-4.096-30.72 20.48-22.528-29.696-5.12-15.36-26.624-14.336 27.648L407.552 691.2l21.504 21.504L424.96 743.424 424.96 743.424zM807.936 395.264l27.648-13.312 27.648 12.288-4.096-30.72 20.48-22.528-29.696-5.12-15.36-26.624L819.2 336.896 789.504 343.04l21.504 21.504L807.936 395.264 807.936 395.264zM561.152 749.568l27.648-13.312 27.648 12.288-4.096-30.72 20.48-22.528-29.696-5.12-15.36-26.624L573.44 691.2l-29.696 6.144 21.504 21.504L561.152 749.568 561.152 749.568zM531.456 104.448l27.648-13.312 27.648 12.288-4.096-30.72 20.48-22.528-29.696-5.12-15.36-26.624L542.72 46.08l-29.696 6.144 21.504 21.504L531.456 104.448 531.456 104.448zM197.632 584.704l27.648-13.312 27.648 12.288-4.096-30.72 20.48-22.528-29.696-5.12-15.36-26.624-14.336 27.648-29.696 6.144 21.504 21.504L197.632 584.704 197.632 584.704zM406.528 111.616l27.648-13.312 27.648 12.288-4.096-30.72 20.48-22.528-29.696-5.12L432.128 25.6l-14.336 27.648-29.696 6.144 21.504 21.504L406.528 111.616 406.528 111.616zM160.768 465.92l27.648-13.312 27.648 12.288-4.096-30.72 20.48-22.528-29.696-5.12-15.36-26.624-14.336 27.648-29.696 6.144L163.84 435.2 160.768 465.92 160.768 465.92zM160.768 465.92M328.704 364.544c6.144-9.216 11.264-17.408 17.408-25.6l18.432-26.624c7.168-10.24 14.336-19.456 21.504-28.672l-15.36-11.264-7.168 11.264-94.208-66.56 33.792-47.104c7.168-12.288 17.408-13.312 29.696-4.096l70.656 50.176c8.192 5.12 13.312 10.24 14.336 15.36 1.024 5.12-2.048 15.36-10.24 29.696 7.168 1.024 15.36 2.048 23.552 4.096 6.144-15.36 9.216-25.6 8.192-32.768-1.024-7.168-4.096-13.312-10.24-18.432l-95.232-68.608c-16.384-12.288-29.696-11.264-39.936 5.12l-43.008 61.44c-3.072 4.096-10.24 13.312-19.456 25.6l17.408 12.288c4.096-7.168 8.192-13.312 13.312-20.48l93.184 65.536-31.744 45.056-78.848-56.32c-11.264-7.168-22.528-16.384-36.864-26.624l-10.24 14.336c14.336 9.216 26.624 17.408 36.864 25.6L328.704 364.544 328.704 364.544zM328.704 364.544M432.128 401.408c-3.072-6.144-5.12-12.288-7.168-18.432-21.504 9.216-35.84 15.36-43.008 15.36 3.072 5.12 4.096 12.288 6.144 18.432C397.312 414.72 411.648 409.6 432.128 401.408L432.128 401.408zM479.232 296.96l-36.864 52.224c-11.264-8.192-19.456-14.336-24.576-18.432l-10.24 14.336c5.12 2.048 14.336 8.192 27.648 17.408l13.312 10.24c4.096-7.168 9.216-15.36 14.336-21.504l31.744-44.032c22.528-2.048 47.104 6.144 73.728 24.576 26.624 18.432 47.104 34.816 61.44 48.128 1.024-7.168 2.048-14.336 6.144-22.528l-43.008-30.72c-12.288-8.192-22.528-16.384-33.792-22.528-11.264-6.144-20.48-10.24-29.696-12.288-9.216-2.048-17.408-2.048-25.6-2.048-8.192 0-12.288-3.072-13.312-11.264-1.024-7.168-2.048-17.408-2.048-29.696C481.28 250.88 475.136 251.904 466.944 250.88 473.088 275.456 476.16 289.792 479.232 296.96L479.232 296.96zM562.176 364.544c2.048 3.072 1.024 8.192-4.096 15.36L512 444.416l-46.08-32.768c-5.12-3.072-11.264-8.192-16.384-12.288l-10.24 13.312c6.144 4.096 14.336 9.216 23.552 15.36l40.96 28.672c-8.192 12.288-16.384 22.528-23.552 30.72l16.384 11.264c4.096-6.144 11.264-17.408 21.504-32.768 10.24 7.168 18.432 13.312 26.624 20.48l10.24-13.312c-8.192-5.12-17.408-11.264-27.648-18.432l50.176-70.656c7.168-11.264 9.216-19.456 4.096-26.624-5.12-7.168-12.288-13.312-21.504-20.48-4.096 4.096-10.24 8.192-17.408 12.288C552.96 357.376 560.128 362.496 562.176 364.544L562.176 364.544zM472.064 386.048c3.072 5.12 6.144 11.264 8.192 17.408 20.48-11.264 34.816-18.432 41.984-23.552-2.048-4.096-5.12-10.24-8.192-17.408C499.712 370.688 485.376 378.88 472.064 386.048L472.064 386.048zM472.064 386.048M561.152 545.792l15.36 10.24c6.144-10.24 11.264-17.408 16.384-23.552l31.744 22.528c-6.144 9.216-12.288 16.384-17.408 22.528l15.36 11.264c5.12-8.192 10.24-16.384 16.384-23.552 3.072 2.048 7.168 6.144 12.288 10.24l8.192-12.288c-5.12-3.072-10.24-6.144-13.312-8.192l48.128-67.584c4.096 3.072 8.192 6.144 12.288 10.24l8.192-12.288c-9.216-6.144-18.432-12.288-26.624-17.408l-37.888-26.624c-10.24-7.168-19.456-13.312-26.624-20.48l-8.192 12.288c7.168 4.096 14.336 8.192 19.456 13.312l-48.128 67.584c-4.096-3.072-9.216-7.168-14.336-11.264l-8.192 12.288c6.144 3.072 11.264 6.144 15.36 10.24C573.44 530.432 567.296 537.6 561.152 545.792L561.152 545.792zM643.072 528.384l-11.264 15.36-31.744-22.528 11.264-15.36L643.072 528.384 643.072 528.384zM660.48 502.784l-10.24 15.36-31.744-22.528 10.24-15.36L660.48 502.784 660.48 502.784zM679.936 476.16l-11.264 15.36-31.744-22.528 11.264-15.36L679.936 476.16 679.936 476.16zM665.6 412.672c0-10.24-1.024-20.48-2.048-28.672-7.168 0-13.312 0-17.408-1.024 2.048 6.144 3.072 14.336 4.096 23.552 1.024 9.216 0 17.408-1.024 25.6l20.48 2.048C666.624 430.08 665.6 422.912 665.6 412.672L665.6 412.672zM789.504 495.616l-27.648 39.936-31.744-22.528c7.168-12.288 12.288-24.576 15.36-37.888 3.072-13.312 4.096-27.648 2.048-41.984-6.144 2.048-13.312 2.048-20.48-1.024 2.048 13.312 2.048 26.624 0 37.888-2.048 12.288-6.144 22.528-12.288 31.744-6.144 10.24-15.36 24.576-30.72 45.056-15.36 20.48-26.624 36.864-35.84 49.152l60.416 43.008c6.144-9.216 13.312-20.48 22.528-32.768l73.728-104.448c4.096-7.168 6.144-12.288 3.072-18.432-3.072-5.12-7.168-11.264-13.312-17.408-3.072 5.12-10.24 9.216-17.408 12.288C790.528 485.376 793.6 490.496 789.504 495.616L789.504 495.616zM724.992 586.752l-22.528 31.744-30.72-21.504 22.528-31.744L724.992 586.752 724.992 586.752zM687.104 446.464c2.048 4.096 3.072 9.216 3.072 15.36 10.24-2.048 21.504-4.096 34.816-7.168-2.048-6.144-3.072-11.264-4.096-17.408C704.512 442.368 694.272 446.464 687.104 446.464L687.104 446.464zM753.664 545.792l-21.504 29.696-30.72-21.504 21.504-29.696L753.664 545.792 753.664 545.792zM753.664 545.792"  horiz-adv-x="1024" />

    
    <glyph glyph-name="time" unicode="&#58912;" d="M513.222 865.331c-266.503 0-482.555-216.047-482.555-482.547 0-266.523 216.055-482.561 482.555-482.561 266.517 0 482.555 216.041 482.555 482.561-0 266.5-216.041 482.547-482.555 482.547zM513.222-21.827c-223.464 0-404.607 181.138-404.607 404.61 0 223.461 181.144 404.605 404.607 404.605 223.466 0 404.607-181.144 404.607-404.605 0-223.472-181.141-404.61-404.607-404.61zM513.222 766.357c-211.842 0-383.576-171.726-383.576-383.573 0-211.856 171.734-383.587 383.576-383.587 211.853 0 383.584 171.732 383.584 383.587 0 211.847-171.732 383.573-383.584 383.573zM777.199 563.82l20.219-34.271-63.887-37.688-20.216 34.274 63.885 37.686zM654.922 677.557l35.49-18.037-33.616-66.12-35.47 18.029 33.596 66.128zM202.898 398.492h74.166v-39.797h-74.166v39.797zM234.671 196.949l-15.006 36.853 68.694 27.966 15.017-36.859-68.705-27.96zM288.779 486.428l-63.887 37.688 20.221 34.279 63.89-37.688-20.224-34.279zM369.166 677.56l33.61-66.131-35.484-18.034-33.61 66.131 35.484 18.034zM377.299 77.833l-35.484 18.034 33.596 66.114 35.487-18.031-33.599-66.117zM531.697 58.405h-40.257v66.323h40.257v-66.323zM649.458 77.85l-33.613 66.111 35.481 18.040 33.613-66.109-35.481-18.043zM491.44 353.268l12.655 332.852 41.614-303.345 233.367-161.563-287.636 132.056zM751.031 358.696v39.797h74.166v-39.797h-74.166z"  horiz-adv-x="1024" />

    
    <glyph glyph-name="xingbie" unicode="&#58950;" d="M392.23808 509.55264m-81.07008 0a15.834 15.834 0 1 0 162.14016 0 15.834 15.834 0 1 0-162.14016 0ZM632.8832 318.97088m-81.07008 0a15.834 15.834 0 1 0 162.14016 0 15.834 15.834 0 1 0-162.14016 0ZM512 800.45568c-211.88096 0-383.6416-171.76064-383.6416-383.6416 0-211.86048 171.76064-383.63648 383.6416-383.63648 211.87584 0 383.63648 171.776 383.63648 383.63648C895.63648 628.69504 723.88096 800.45568 512 800.45568zM474.12224 286.89408l-61.5936-0.0512 0.06144-73.82016c0.00512-11.48416-9.29792-20.80256-20.78208-20.8128-11.48928-0.00512-20.80768 9.29792-20.81792 20.78208l-0.06144 73.82016-63.21152-0.0512c-11.48416-0.00512-20.80256 9.29792-20.8128 20.78208-0.00512 11.48416 9.29792 20.80256 20.78208 20.8128l63.21152 0.0512-0.04096 50.97984-0.00512 5.80096c-60.8768 9.9072-107.42272 62.56128-107.47392 126.24896C263.3216 582.23104 320.66048 639.65696 391.4496 639.7184c70.78912 0.05632 128.22016-57.28256 128.27648-128.06656 0.0512-63.6928-46.40768-116.41856-107.27424-126.42304l0.00512-5.80096 0.04096-50.97984 61.58848 0.0512c11.48928 0.01024 20.80768-9.2928 20.81792-20.7872C494.91456 296.22272 485.61152 286.90432 474.12224 286.89408zM632.54528 192.4096c-70.78912-0.05632-128.22016 57.28256-128.27648 128.07168-0.0512 63.68768 46.40768 116.41856 107.27424 126.42304l-0.09728 121.45664c-18.29888-18.65728-38.79424-39.68512-38.79424-39.68512l-0.00512 0.00512c-3.77344-3.85536-9.00096-6.27712-14.8224-6.28224-11.48928-0.00512-20.80768 9.29792-20.81792 20.78208-0.00512 5.63712 2.2784 10.71616 5.9136 14.464l-0.0768 0.0768c0 0 45.84448 47.00672 61.77792 62.98624 12.35968 12.36992 24.448 13.91104 32.26624 12.96384 12.75904-1.47968 20.6848-9.69216 24.1408-14.19776l60.55936-61.568c8.06912-8.18688 7.95648-21.35552-0.22016-29.4144-4.06016-3.98336-9.3184-5.96992-14.57664-5.97504-5.38112-0.00512-10.76736 2.0736-14.83264 6.21056l-38.92224 39.552 0.09728-121.344c60.88192-9.9072 107.42272-62.5664 107.48416-126.24896C760.67328 249.89696 703.3344 192.46592 632.54528 192.4096z"  horiz-adv-x="1024" />

    
    <glyph glyph-name="icon-oc-wallet" unicode="&#58895;" d="M409.6 665.6h204.8c0 0 122.88 33.28 76.8 128-35.84 74.24-102.4 25.6-102.4 25.6s2.56 76.8-76.8 76.8-76.8-76.8-76.8-76.8-66.56 48.64-102.4-25.6c-46.080-94.72 76.8-128 76.8-128zM624.64 640h-225.28c-179.2-76.8-322.56-238.080-322.56-435.2 0-238.080 181.76-332.8 435.2-332.8s435.2 94.72 435.2 332.8c0 197.12-143.36 358.4-322.56 435.2zM665.6 230.4c15.36 0 25.6-10.24 25.6-25.6s-10.24-25.6-25.6-25.6h-128v-153.6c0-15.36-10.24-25.6-25.6-25.6s-25.6 10.24-25.6 25.6v153.6h-128c-15.36 0-25.6 10.24-25.6 25.6s10.24 25.6 25.6 25.6h128v76.8h-128c-15.36 0-25.6 10.24-25.6 25.6s10.24 25.6 25.6 25.6h99.84l-92.16 112.64c-10.24 10.24-7.68 28.16 2.56 35.84 10.24 10.24 28.16 7.68 35.84-2.56l107.52-130.56 107.52 130.56c10.24 10.24 25.6 12.8 35.84 2.56s12.8-25.6 2.56-35.84l-92.16-112.64h99.84c15.36 0 25.6-10.24 25.6-25.6s-10.24-25.6-25.6-25.6h-128v-76.8h128z"  horiz-adv-x="1024" />

    
    <glyph glyph-name="dianpu" unicode="&#58882;" d="M964.928 455.232c0.064 18.88-3.008 37.824-8.64 55.104-0.128 0.448-0.192 0.896-0.256 1.344-0.512 1.92-1.024 3.712-1.792 5.44l-76.416 190.336c-13.184 39.488-51.264 63.68-95.68 63.808L245.312 771.264c-45.12 0-80.128-24-92.8-61.824L70.336 515.136C69.952 513.984 69.504 512.256 69.184 510.592 63.168 492.224 60.16 473.408 60.16 454.528c0-50.112 20.736-96.896 56.064-130.24l0.256-285.376c0-46.08 37.44-83.456 83.584-83.456l613.824 0.384c46.08 0.064 83.456 37.632 83.456 83.648L897.344 314.752C939.712 348.48 964.928 400 964.928 455.232L964.928 455.232zM813.824 21.12l-613.696-0.384c-10.112 0-18.368 8.192-18.368 18.176L181.504 285.248c17.728-5.632 37.184-8.512 58.24-8.512 53.504 0.128 103.104 23.744 136.96 63.936C410.304 300.736 459.52 277.44 512.896 277.056c53.056 0.512 102.144 23.936 135.552 63.808 33.792-40.256 83.456-63.68 137.28-63.68 16.512 0.128 32 1.856 46.464 5.312l0.064-243.072C832.192 29.376 823.872 21.12 813.824 21.12L813.824 21.12zM840.32 354.816c-14.848-8.128-33.344-12.224-54.656-12.416-39.744 0-75.968 20.16-97.152 54.4-1.408 3.264-3.968 8.576-8.768 13.76-5.248 6.016-15.04 13.12-31.232 13.12-12.928 0-24.704-5.248-31.36-13.44C612.736 405.312 610.304 400.32 608.64 396.8 587.712 363.008 551.808 342.656 512.832 342.336 473.472 342.592 437.44 362.816 416.448 396.928 414.976 399.936 412.544 404.992 408.704 409.28c-15.36 18.304-49.6 17.344-63.04 1.344C340.736 405.248 338.176 399.872 336.512 396.096 315.456 362.432 279.232 342.144 239.68 342.016c-21.056 0-39.104 3.904-53.632 11.712l0 0 0 0C148.608 373.504 125.376 412.16 125.376 454.464c0 12.48 2.112 25.088 6.272 37.312 0.32 0.96 0.576 1.856 0.768 2.88l80.96 191.488c1.664 4.928 6.656 19.84 31.872 19.84l536.896 0c10.304-0.64 28.16-2.496 34.432-21.12l75.904-188.8c0.256-1.344 0.64-2.688 0.96-3.776 4.16-12.288 6.336-24.768 6.336-37.184C899.84 413.312 876.992 374.848 840.32 354.816L840.32 354.816zM840.32 354.816"  horiz-adv-x="1024" />

    
    <glyph glyph-name="shouyeshouye" unicode="&#58931;" d="M425.5163 128.392438c7.194866 8.788154 12.386098 15.589047 15.589047 20.386306l-20.386306 11.992125c-6.407943-10.398838-16.394389-24.789593-29.979802-43.171242l-71.950705 0 16.788361 10.79281c-6.407943 7.982812-12.404518 15.177678-17.987676 21.585621-4.009314 4.797259-7.194866 8.788154-9.593496 11.992125l-19.186991-11.992125c7.194866-8.000208 15.589047-18.793018 25.182542-32.378431l-89.939405 0 0-20.386306L346.369705 97.213321c-0.805342-4.797259-2.004657-11.992125-3.597945-21.585621-0.805342-4.797259-1.199315-8.000208-1.199315-9.593496l-83.942831 0 0-190.670597 22.784936 0 0 17.987676 169.084976 0 0-17.987676 22.784936 0L472.284463 66.034205 363.158067 66.034205c2.39863 8.788154 4.797259 19.186991 7.194866 31.179117l135.50723 0 0 20.386306-88.739067 0C418.714384 119.998257 421.505963 123.595178 425.5163 128.392438zM449.499527-88.660017 280.414551-88.660017l0 32.378431 169.084976 0L449.499527-88.660017zM449.499527-37.095617 280.414551-37.095617l0 31.179117 169.084976 0L449.499527-37.095617zM449.499527 45.648922l0-32.378431L280.414551 13.270491l0 32.378431L449.499527 45.648922zM533.442358 124.794493 658.157801 124.794493 647.364991 85.221196 565.82079 85.221196 565.82079-53.883979 588.604702-53.883979 588.604702 64.835913 756.491387 64.835913 756.491387-52.684664 779.275299-52.684664 779.275299 85.221196 670.149926 85.221196 682.142052 124.794493 810.454416 124.794493 810.454416 145.180799 533.442358 145.180799ZM677.344792-32.298358c4.797259 15.177678 6.783497 32.378431 5.995551 51.565423l0 28.780487-21.585621 0 0-28.780487c6.389524-66.366523-38.785352-107.533109-135.508253-123.516128 7.194866-7.982812 11.992125-14.783705 14.389732-20.386306 68.747757 16.001439 111.524003 39.96727 128.313388 71.950705 41.559535-22.390963 81.545224-45.568848 119.919207-69.553099l14.389732 22.784936c-18.399045 8.80555-46.37419 23.571858-83.942831 44.369533C700.916651-44.701852 686.938288-37.095617 677.344792-32.298358zM520.773827 886.050394 209.842239 575.119829 230.571353 554.389692 520.773827 844.59319 810.977325 554.389692 831.706439 575.119829ZM313.485761 533.661601 282.392602 533.661601c0 0 0-171.011862 0-217.652112 0-46.64025 41.457204-41.457204 41.457204-41.457204s350.445534 0 393.84702 0 41.457204 41.457204 41.457204 41.457204L759.15403 533.661601l-31.093159 0c0 0 0-162.590052 0-196.922998 0-34.331923-31.092136-31.093159-31.092136-31.093159l-93.279477 0c0 0 0 99.757005 0 134.736681 0 34.978652-31.093159 31.092136-31.093159 31.092136s-68.663846 0-103.643522 0c-34.979676 0-31.091112-31.092136-31.091112-31.092136l0-134.736681c0 0-60.243059 0-93.279477 0-33.036417 0-31.092136 31.093159-31.092136 31.093159L313.489854 533.661601z"  horiz-adv-x="1024" />

    
    <glyph glyph-name="mima-copy" unicode="&#58886;" d="M368.030 208.037c0-17.641 14.353-31.994 31.994-31.994h223.953c17.642 0 31.994 14.353 31.994 31.994v191.96h-287.94v-191.96zM512 893.616c-281.453 0-509.616-228.151-509.616-509.616s228.162-509.616 509.616-509.616c281.46 0 509.616 228.151 509.616 509.616s-228.157 509.616-509.616 509.616zM712.207 183.793c0-40.038-32.762-72.802-72.802-72.802h-254.809c-40.042 0-72.802 32.764-72.802 72.802v254.809h36.402v54.602c0 90.468 73.338 163.807 163.806 163.807 90.469 0 163.806-73.339 163.806-163.807h-36.402c0 70.251-57.154 127.405-127.404 127.405s-127.404-57.154-127.404-127.405v-54.602h327.61v-254.809z"  horiz-adv-x="1024" />

    
    <glyph glyph-name="chongzhi" unicode="&#58956;" d="M606.201475 283.744645c35.514865-4.997827 50.960649 10.313903 50.761104 50.093908-18.674315 0-36.097126 0.00614-53.519937-0.001023-44.228317-0.019443-45.36521-1.101077-49.587372-49.678446C571.423391 284.159084 589.121472 286.148391 606.201475 283.744645zM511.162936 835.218682c-246.254543 0-445.883163-199.62862-445.883163-445.883163s199.62862-445.883163 445.883163-445.883163 445.883163 199.62862 445.883163 445.883163S757.417479 835.218682 511.162936 835.218682zM710.379163 251.481847c0-6.353708-11.730159-11.256368-17.59575-11.256368-123.081223 0-246.161423 0-369.242645 0-3.865028 0-11.594059 8.642844-11.594059 12.96222 0 53.305043 0 106.307188 0 159.309332 132.810818 0 265.621637 0 398.432455 0C710.379163 369.147734 710.379163 282.558633 710.379163 251.481847zM710.379163 472.686878c0-2.355651 0-4.711302 0-7.066953-0.862647 0-1.725294 0-2.587941 0-1.364067 0-2.728134 0-4.093225 0-128.026862 0-256.053724 0-384.080585 0-1.592264 0-3.184529 0-4.77577 0-0.964978 0-1.929955 0-2.895957 0 0 0.934279 0 1.868557 0 2.802836 0 23.266913 0 46.542013 0 70.021773 132.810818 0 265.621637 0 398.432455 0C710.379163 516.399449 710.379163 494.534466 710.379163 472.686878z"  horiz-adv-x="1024" />

    
    </font>
</defs>
</svg>
